<svg xmlns="http://www.w3.org/2000/svg" width="32" height="28" viewBox="0 0 32 28" fill="none"><path d="M31.0006 27.3606H10.0006C9.80162 27.3606 9.64062 27.1996 9.64062 27.0006V22.3546C4.64563 22.1646 0.640625 18.0416 0.640625 13.0006C0.640625 7.95962 4.64563 3.83762 9.64062 3.64762V1.00062C9.64062 0.801625 9.80162 0.640625 10.0006 0.640625H31.0006C31.1996 0.640625 31.3606 0.801625 31.3606 1.00062V27.0006C31.3606 27.1996 31.1996 27.3606 31.0006 27.3606ZM28.3606 26.6406H30.6396V1.36062H10.3606V3.64762C15.3556 3.83762 19.3606 7.95962 19.3606 13.0006C19.3606 18.0406 15.3556 22.1636 10.3606 22.3546V26.6406H17.6406V21.0006C17.6406 20.8016 17.8016 20.6406 18.0006 20.6406H22.0006C22.1996 20.6406 22.3606 20.8016 22.3606 21.0006V26.6406H23.6396V14.0006C23.6396 13.8016 23.8006 13.6406 23.9996 13.6406H27.9996C28.1986 13.6406 28.3596 13.8016 28.3596 14.0006L28.3606 26.6406ZM24.3606 26.6406H27.6396V14.3606H24.3606V26.6406ZM18.3606 26.6406H21.6396V21.3606H18.3606V26.6406ZM3.74963 18.9596C5.32463 20.6096 7.54462 21.6406 10.0006 21.6406C12.4566 21.6406 14.6776 20.6106 16.2516 18.9586C15.2106 17.1766 13.3876 15.8916 11.3276 15.5016C11.1676 15.4716 11.0486 15.3386 11.0356 15.1766C11.0226 15.0146 11.1196 14.8646 11.2726 14.8096C12.8006 14.2626 13.8276 12.8136 13.8276 11.2056C13.8276 9.08562 12.1026 7.36162 9.98362 7.36162C7.86462 7.36162 6.13963 9.08662 6.13963 11.2056C6.13963 12.8146 7.16562 14.2636 8.69362 14.8096C8.84662 14.8646 8.94362 15.0146 8.93062 15.1766C8.91762 15.3386 8.79862 15.4716 8.63862 15.5016C6.57062 15.8936 4.80163 17.1466 3.74963 18.9596ZM12.4276 15.0416C14.2106 15.6186 15.7606 16.8146 16.7486 18.3906C17.9316 16.9116 18.6396 15.0366 18.6396 13.0006C18.6396 8.23662 14.7646 4.36063 9.99962 4.36063C5.23462 4.36063 1.36063 8.23662 1.36063 13.0006C1.36063 15.0366 2.06862 16.9106 3.25262 18.3906C4.24663 16.7916 5.75963 15.6136 7.53863 15.0406C6.24163 14.2156 5.42063 12.7746 5.42063 11.2046C5.42063 8.68763 7.46762 6.64062 9.98462 6.64062C12.5016 6.64062 14.5486 8.68763 14.5486 11.2046C14.5476 12.7746 13.7256 14.2166 12.4276 15.0416ZM28.0006 11.3606H22.0006V10.6406H28.0006V11.3606ZM28.0006 8.36062H22.0006V7.64062H28.0006V8.36062ZM28.0006 5.36063H22.0006V4.64062H28.0006V5.36063Z" fill="#00539A"></path></svg>