<svg xmlns="http://www.w3.org/2000/svg" width="22" height="32" viewBox="0 0 22 32" fill="none"><path d="M17.0006 31.3606C16.9456 31.3606 16.8906 31.3476 16.8396 31.3226L11.0006 28.4026L5.16163 31.3226C5.04963 31.3786 4.91663 31.3716 4.81063 31.3066C4.70563 31.2406 4.64063 31.1256 4.64063 31.0006V19.1736C2.20763 17.2766 0.640625 14.3186 0.640625 11.0006C0.640625 5.28862 5.28863 0.640625 11.0006 0.640625C16.7136 0.640625 21.3606 5.28762 21.3606 11.0006C21.3606 14.3176 19.7936 17.2756 17.3606 19.1736V31.0006C17.3606 31.1256 17.2956 31.2406 17.1896 31.3076C17.1326 31.3426 17.0656 31.3606 17.0006 31.3606ZM11.0006 27.6406C11.0556 27.6406 11.1106 27.6536 11.1616 27.6786L16.6406 30.4186V19.6876C15.0166 20.7456 13.0786 21.3616 11.0006 21.3616C8.92163 21.3616 6.98462 20.7456 5.36062 19.6876V30.4186L10.8396 27.6786C10.8906 27.6526 10.9456 27.6406 11.0006 27.6406ZM11.0006 1.36063C5.68563 1.36063 1.36063 5.68562 1.36063 11.0006C1.36063 16.3156 5.68563 20.6406 11.0006 20.6406C16.3156 20.6406 20.6406 16.3166 20.6406 11.0006C20.6406 5.68462 16.3156 1.36063 11.0006 1.36063ZM14.0006 16.3606C13.9216 16.3606 13.8436 16.3346 13.7776 16.2836L11.0006 14.0976L8.22362 16.2836C8.10262 16.3796 7.93363 16.3866 7.80463 16.3026C7.67563 16.2186 7.61463 16.0606 7.65263 15.9106L8.58262 12.3276L5.78962 10.2916C5.66362 10.1996 5.61063 10.0376 5.65963 9.88962C5.70663 9.74062 5.84463 9.64062 6.00063 9.64062H9.49463L10.6576 5.89363C10.7516 5.59263 11.2516 5.59263 11.3456 5.89363L12.5086 9.64062H16.0006C16.1566 9.64062 16.2946 9.74062 16.3436 9.88962C16.3916 10.0376 16.3386 10.2006 16.2126 10.2916L13.4186 12.3276L14.3496 15.9106C14.3886 16.0596 14.3276 16.2176 14.1986 16.3026C14.1376 16.3406 14.0686 16.3606 14.0006 16.3606ZM7.10562 10.3606L9.20362 11.8896C9.32362 11.9766 9.37763 12.1276 9.34063 12.2706L8.61663 15.0566L10.7776 13.3566C10.9086 13.2526 11.0916 13.2526 11.2226 13.3566L13.3826 15.0566L12.6586 12.2706C12.6216 12.1276 12.6766 11.9766 12.7956 11.8896L14.8946 10.3606H12.2416C12.0836 10.3606 11.9446 10.2576 11.8976 10.1076L11.0006 7.21563L10.1036 10.1076C10.0566 10.2576 9.91762 10.3606 9.75962 10.3606H7.10562Z" fill="#00539A"></path></svg>