<svg xmlns="http://www.w3.org/2000/svg" width="28" height="30" viewBox="0 0 28 30" fill="none"><path d="M20.2506 29.3604C16.3296 29.3604 13.1406 26.1714 13.1406 22.2504C13.1406 18.3294 16.3296 15.1404 20.2506 15.1404C24.1716 15.1404 27.3606 18.3294 27.3606 22.2504C27.3606 26.1714 24.1716 29.3604 20.2506 29.3604ZM20.2506 15.8604C16.7276 15.8604 13.8606 18.7274 13.8606 22.2504C13.8606 25.7734 16.7276 28.6404 20.2506 28.6404C23.7736 28.6404 26.6406 25.7744 26.6406 22.2504C26.6406 18.7264 23.7736 15.8604 20.2506 15.8604ZM12.8196 29.3114L0.819625 22.3114C0.708625 22.2464 0.640625 22.1284 0.640625 22.0004V8.00037H1.36063V21.7934L13.1816 28.6894L12.8196 29.3114ZM20.0006 25.3604C19.9086 25.3604 19.8156 25.3254 19.7456 25.2554L17.1896 22.7004L17.6996 22.1904L20.0006 24.4914L24.0026 20.4874L24.5126 20.9974L20.2556 25.2554C20.1856 25.3254 20.0926 25.3604 20.0006 25.3604ZM5.36062 15.0004H4.64062V5.00037H5.36062V15.0004ZM25.3606 14.0004H24.6406V8.20737L13.0006 1.41738L9.36062 3.53338V12.0004H8.64062V3.32537C8.64062 3.19737 8.70862 3.07837 8.81962 3.01437L12.8196 0.689375C12.9316 0.624375 13.0706 0.624375 13.1816 0.689375L25.1816 7.68937C25.2926 7.75337 25.3606 7.87237 25.3606 8.00037V14.0004Z" fill="#00539A"></path></svg>