<svg xmlns="http://www.w3.org/2000/svg" width="383" height="367" viewBox="0 0 383 367"><g><g><g><g><path fill="#f0f0f0" d="M0 256.336c0-60.966 85.618-110.389 191.233-110.389 105.615 0 191.233 49.423 191.233 110.39 0 60.966-85.618 110.389-191.233 110.389C85.618 366.726 0 317.303 0 256.336z"/></g></g><g><g><path fill="#e0e0e0" d="M156.33 359.502L37.663 290.833c-4.87-2.76-4.87-7.386 0-10.146l193.668-111.85c2.03-1.137 5.276-1.137 7.224 0l129.87 68.587c1.461.812 1.461 2.922 0 3.734l-204.87 118.344c-1.947 1.136-5.275 1.136-7.223 0z"/></g></g><g><g><g><g><g><path fill="#0097a4" d="M327.11 215.59l-8.036-4.22s-2.598-18.426.162-33.524c3.896-21.347 18.588-28.409 23.864-26.136 5.276 2.273 6.33 8.604-3.49 20.78-5.845 7.142-12.257 23.214-12.5 43.1z"/></g></g><g opacity=".15"><g opacity=".15"><path d="M327.11 215.59l-8.036-4.22s-2.598-18.426.162-33.524c3.896-21.347 18.588-28.409 23.864-26.136 5.276 2.273 6.33 8.604-3.49 20.78-5.845 7.142-12.257 23.214-12.5 43.1z"/></g></g><g><g><path fill="#fff" d="M323.62 206.174c.08 0 .08 0 0 0 .324 0 .486-.243.486-.568-2.273-20.13 6.25-41.883 15.503-50.568.163-.162.244-.487 0-.65-.162-.162-.487-.243-.649 0-9.416 8.767-18.182 30.926-15.828 51.38.081.244.244.406.487.406z"/></g></g></g><g><g><g><path fill="#95c81f" d="M345.21 225.574c1.055.649 3.328-.487 4.14-1.056 1.46-.892 2.678-2.272 3.49-3.814.974-1.786 1.217-3.653.974-5.682-.162-1.055-.406-2.03-.65-3.004-.243-.974-.487-1.948-.811-2.922-.244-.974-.487-1.948-.325-3.003.325-2.03 2.11-3.328 3.734-4.545 1.786-1.299 3.734-3.004 3.815-5.439 0-1.866-.893-3.652-2.03-5.113-1.136-1.461-2.434-2.841-3.49-4.383-.73-1.137-1.298-2.435-1.136-3.815.081-.812.487-1.624.893-2.354.893-1.542 2.03-3.003 2.678-4.627.65-1.704.569-3.815-.73-5.032-1.055-1.055-2.679-1.218-4.14-1.137-2.516.082-5.032 1.949-7.061 3.328-1.948 1.38-3.572 3.328-5.926 4.14-3.084 1.055-7.061.487-9.09 3.571-1.786 2.679-.488 5.682-.325 8.604.243 4.627-4.059 6.331-6.169 9.66-.73 1.054-.893 2.353-.812 3.652.163 2.191.406 3.815 1.38 6.25.812 2.03 3.247 6.575 3.247 6.575 0 .08 18.182 10.064 18.344 10.146z"/></g></g><g><g><path fill="#fff" d="M334.496 219.73c.324 0 .487-.244.487-.488-.325-18.993 9.09-39.772 15.746-45.697.163-.163.244-.487 0-.65-.162-.162-.487-.243-.649 0-6.737 6.088-16.396 27.11-16.071 46.429 0 .162.243.405.487.405z"/></g></g><g><g><path fill="#fff" d="M337.824 197.327h.162c6.169-1.705 13.717-1.867 13.799-1.867.243 0 .487-.243.487-.487 0-.243-.163-.487-.487-.487-.082 0-7.793.162-14.043 1.948-.243.081-.405.325-.324.568.08.163.243.325.406.325z"/></g></g></g></g><g><g><g><g><path fill="#0097a4" d="M41.153 256.012s.243-14.286-5.358-26.055c-5.519-11.85-14.204-19.968-23.133-21.835-8.847-1.866-17.207 5.439-8.36 12.338 8.847 6.9 25.162 14.935 30.195 37.094z"/></g><g opacity=".15"><path d="M41.153 256.012s.243-14.286-5.358-26.055c-5.519-11.85-14.204-19.968-23.133-21.835-8.847-1.866-17.207 5.439-8.36 12.338 8.847 6.9 25.162 14.935 30.195 37.094z"/></g></g><g><path fill="#fff" d="M39.042 251.953h.081c.244-.08.406-.324.325-.568-6.412-24.513-23.133-36.607-31.088-39.529-.243-.081-.487 0-.649.325-.081.243 0 .568.325.65 7.792 2.921 24.188 14.772 30.52 38.879 0 .162.243.325.486.243z"/></g></g><g><g><g><path fill="#95c81f" d="M25.244 281.255c1.298 4.302 4.626 6.656 9.01 7.549 5.113.974 10.876-1.948 14.934-4.87 3.896-2.922 7.63-7.305 7.143-12.5-.406-3.815-1.704-6.331-4.627-8.848-2.029-1.785-4.301-3.57-5.357-6.087-1.217-2.922-.649-6.412-2.272-9.091-1.056-1.867-3.085-3.166-5.114-3.734-3.977-1.217-8.036-.974-12.175-.73-4.952.324-8.685-2.273-13.393-3.166-2.922-.568-6.169-.081-8.523 1.948-1.299 1.136-2.191 2.841-1.948 4.546.325 1.866 1.948 3.246 3.41 4.383 1.541 1.136 3.165 2.354 3.652 4.22.974 3.734-3.247 7.387-2.03 11.04.488 1.542 1.867 2.597 3.329 3.327 1.217.568 2.516.893 3.733 1.38.65.163 1.218.244 1.867.325 1.867.243 3.815.65 5.195 1.948 2.354 2.03 2.273 5.438 3.165 8.36z"/></g></g></g><g><path fill="#fff" d="M46.347 278.495c-8.279-23.214-29.87-33.603-35.146-35.145-.243-.082-.405.08-.487.243-.08.243.082.406.244.487 3.571 1.055 14.529 6.088 23.701 16.396-3.003-.568-11.039-1.623-17.695 1.055-.243.081-.324.325-.243.487a.446.446 0 0 0 .406.244h.162c7.468-3.003 17.127-1.055 18.263-.812 3.977 4.708 7.63 10.39 10.065 17.208a.446.446 0 0 0 .406.243h.162c.081.081.243-.162.162-.406z"/></g></g></g><g><g><g><path fill="#0097a4" d="M44.318 280.362c0 2.922 2.192 6.575 4.87 8.117l106.818 61.688c2.679 1.543 7.062 1.543 9.821 0l188.068-108.522c2.679-1.542 4.87-5.195 4.87-8.117 0-2.922-2.191-6.575-4.87-8.117l-106.818-61.688c-2.678-1.542-7.061-1.542-9.821 0L49.188 272.164c-2.678 1.624-4.87 5.276-4.87 8.198z"/></g><g opacity=".4"><path d="M358.765 233.447c0 2.922-2.191 6.575-4.87 8.117L165.827 350.167c-1.38.812-3.165 1.137-4.87 1.137V340.67c1.786 0 3.572-.406 4.87-1.218l188.068-108.522c2.354-1.38 2.679-3.49.893-5.033 2.191 1.786 3.977 4.952 3.977 7.549z"/></g><g opacity=".3"><path d="M49.188 277.846l106.818 61.688c2.679 1.542 7.062 1.542 9.821 0l188.068-108.522c2.679-1.542 2.679-4.14 0-5.682l-106.818-61.688c-2.678-1.542-7.061-1.542-9.821 0L49.188 272.164c-2.678 1.624-2.678 4.14 0 5.682z"/></g><g opacity=".5"><path d="M160.876 340.67v10.634c-1.786 0-3.571-.406-4.87-1.137L49.188 288.48c-2.678-1.542-4.87-5.195-4.87-8.117 0-2.76 1.948-6.087 4.383-7.792-2.191 1.542-2.029 3.896.487 5.357l106.818 61.688c1.299.65 3.084 1.056 4.87 1.056z"/></g><g><path fill="#0097a4" d="M39.692 272.408c-2.436-1.705-2.436-3.977-2.436-7.062V117.863c0-3.166 2.192-6.9 4.87-8.523L230.195.737c2.679-1.543 5.195-.406 7.711 1.055 2.516 1.46 4.14 2.76 4.14 5.844v147.483c0 3.166-2.192 6.9-4.87 8.523L49.188 272.164c-4.058 2.76-6.9 2.03-9.496.244z"/></g><g opacity=".5"><path d="M49.188 272.164c-4.058 2.76-6.9 2.03-9.496.163-2.436-1.705-2.436-3.978-2.436-7.062V117.782c0-1.542.569-3.328 1.461-4.79l6.981 4.06c-.893 1.541-1.461 3.246-1.461 4.788v147.483c.081 3.166 2.273 4.465 4.951 2.841z"/></g><g opacity=".3"><path d="M242.126 7.636c0-3.084-2.192-4.383-4.87-2.84L49.188 113.398c-1.38.811-2.597 2.11-3.49 3.652l-6.98-4.058c.892-1.542 2.11-2.922 3.49-3.653L230.194.737c2.679-1.542 5.195-.406 7.711 1.055 2.597 1.46 4.22 2.76 4.22 5.844z"/></g><g opacity=".6"><path d="M242.126 7.636c0-.243 0-.487-.081-.73"/></g><g opacity=".4"><path d="M44.318 121.84v147.483c0 3.166 2.192 4.384 4.87 2.841l188.068-108.522c2.678-1.542 4.87-5.357 4.87-8.523V7.636c0-3.166-2.192-4.383-4.87-2.84L49.188 113.398c-2.678 1.542-4.87 5.357-4.87 8.441z"/></g><g><g><path fill="#263238" d="M51.867 119l181.25-104.627c1.623-.974 2.921-.162 2.921 1.705v134.415c0 1.867-1.298 4.14-2.922 5.113L51.866 260.233c-1.623.974-2.921.162-2.921-1.705V124.113c-.081-1.867 1.298-4.14 2.922-5.114z"/></g><g><path fill="#37474f" d="M51.867 119c-1.624.973-2.922 3.246-2.922 5.113v133.522l180.194-104.058c1.623-.974 2.922-3.247 2.922-5.114V15.023z"/></g></g><g><path fill="#37474f" d="M62.743 272.489l174.513-100.73c1.38-.812 3.571-.812 4.87 0l5.114 2.678c1.38.812 1.38 2.03 0 2.841L72.727 277.928c-1.38.811-3.571.811-4.87 0l-5.032-2.68c-1.38-.73-1.38-1.947-.082-2.759z"/></g><g><g opacity=".2"><path d="M76.46 280.606l174.513-100.73c1.38-.812 3.328-.893 4.465-.244l45.454 26.218c1.136.649.893 1.785-.406 2.597l-174.35 100.649c-1.38.812-3.328.893-4.464.244l-45.617-26.137c-1.136-.65-.974-1.785.406-2.597z"/></g><g><path fill="#37474f" d="M163.068 233.934c-.163-.081-.163-.244.08-.406l5.44-3.165c.161-.163.567-.163.73-.082l4.789 2.76c.162.081.162.244-.082.406l-5.438 3.165c-.162.163-.568.163-.73.082zm69.074-37.906c-.162-.08-.162-.243.081-.406l5.439-3.165c.162-.163.568-.163.73-.081l1.299.73c.162.081.162.244-.081.406l-5.439 3.166c-.162.162-.568.162-.73.08zm42.208 15.179l-4.79-2.76c-.161-.081-.161-.244.082-.406l5.438-3.165c.163-.163.568-.163.73-.082l4.79 2.76c.162.081.162.244-.081.406l-5.439 3.166c-.243.08-.568.162-.73.08zm-19.643-20.536c-.162-.081-.162-.243.081-.406l5.438-3.165c.163-.163.569-.163.731-.082l4.789 2.76c.162.081.162.244-.081.406l-5.439 3.166c-.162.162-.568.162-.73.08zm-6.575-3.815c-.162-.081-.162-.243.082-.406l5.438-3.165c.162-.163.568-.163.73-.081l1.299.73c.162.081.162.244-.081.406l-5.438 3.165c-.163.163-.569.163-.731.082zm-24.026 13.799c-.162-.081-.162-.244.082-.406l5.438-3.166c.162-.162.568-.162.73-.08l1.3.73c.161.08.161.243-.082.406l-5.438 3.165c-.163.163-.568.163-.73.081zm-45.048 24.026c-.162-.081-.162-.244.081-.406l5.438-3.166c.163-.162.569-.162.73-.08l4.79 2.759c.162.081.162.243-.081.406l-5.439 3.165c-.162.163-.568.163-.73.081zm-8.036 4.626c-.162-.08-.162-.243.081-.406l5.439-3.165c.162-.162.568-.162.73-.081l4.79 2.76c.161.08.161.243-.082.405l-5.438 3.166c-.163.162-.568.162-.73.081zm33.766-19.48c-.162-.081-.162-.244.082-.406l5.438-3.166c.162-.162.568-.162.73-.08l4.79 2.759c.162.081.162.244-.082.406l-5.438 3.165c-.163.163-.568.163-.73.082zm-17.776 10.227c-.162-.081-.162-.243.082-.406l5.438-3.165c.162-.163.568-.163.73-.081l4.79 2.76c.162.08.162.243-.082.405l-5.438 3.166c-.162.162-.568.162-.73.08zm25.73-14.854c-.161-.08-.161-.243.082-.406l5.438-3.165c.163-.163.568-.163.73-.081l4.79 2.76c.162.08.162.243-.081.405l-5.439 3.166c-.162.162-.568.162-.73.081zm-15.99 9.253c-.162-.08-.162-.243.082-.405l5.438-3.166c.162-.162.568-.162.73-.081l4.79 2.76c.162.08.162.243-.082.405l-5.438 3.166c-.162.162-.568.162-.73.081zm43.345-23.051c-.163-.082-.163-.244.08-.406l5.44-3.166c.161-.162.567-.162.73-.081l1.298.73c.163.082.163.244-.08.406l-5.44 3.166c-.161.162-.567.162-.73.081zm-43.507 64.691l-4.789-2.76c-.162-.08-.162-.243.082-.406l5.438-3.165c.162-.163.568-.163.73-.081l4.79 2.76c.162.08.162.243-.082.405l-5.438 3.166c-.244.162-.65.162-.73.081zm-16.071 9.09l-4.789-2.759c-.162-.081-.162-.243.081-.406l5.52-3.084c.162-.162.568-.162.73-.081l4.79 2.76c.161.08.161.243-.082.405l-5.438 3.166a.737.737 0 0 1-.812 0zm8.036-4.463l-4.79-2.76c-.162-.081-.162-.244.082-.406l5.438-3.166c.163-.162.568-.162.73-.08l4.79 2.759c.162.081.162.243-.082.406l-5.438 3.165c-.243.082-.568.163-.73.082zm-31.17 18.344c-.243.162-.648.162-.73.08l-4.789-2.759c-.162-.081-.162-.243.082-.406l5.438-3.165c.162-.163.568-.163.73-.081l4.79 2.76c.162.08.162.243-.082.405l-5.438 3.166zm15.91-9.254c-.244.163-.568.163-.73.082l-4.79-2.76c-.162-.081-.162-.244.082-.406l5.438-3.166c.162-.162.568-.162.73-.08l4.79 2.759c.162.081.162.244-.082.406l-5.438 3.165zm-8.685 4.708l-4.789-2.76c-.162-.08-.162-.243.081-.405l5.438-3.166c.163-.162.569-.162.731-.081l4.789 2.76c.162.08.162.243-.081.405l-5.439 3.166c-.243.162-.568.162-.73.081zm71.266-46.753c-.162-.081-.162-.243.081-.406l5.438-3.165c.163-.163.569-.163.73-.081l4.79 2.76c.162.08.162.243-.081.405l-5.439 3.166c-.162.162-.568.162-.73.08zm-31.331 23.701l-4.79-2.76c-.161-.08-.161-.243.082-.405l5.438-3.166c.163-.162.569-.162.73-.081l4.79 2.76c.162.08.162.243-.081.406l-5.439 3.165c-.243.163-.568.163-.73.081zm46.185-35.47l-4.79-2.76c-.162-.081-.162-.244.082-.406l5.438-3.165c.163-.163.568-.163.73-.082l4.79 2.76c.162.081.162.244-.081.406l-5.439 3.166c-.162.162-.568.162-.73.08zm2.76 1.623c-.163-.081-.163-.243.08-.406l5.439-3.165c.162-.163.568-.163.73-.082l4.79 2.76c.162.081.162.244-.082.406l-5.438 3.166c-.162.162-.568.162-.73.08zm-40.99 29.22l-4.79-2.759c-.162-.081-.162-.243.082-.406l15.99-9.253c.162-.162.568-.162.73-.081l4.79 2.76c.162.08.162.243-.082.405l-15.99 9.254c-.244.162-.568.162-.73.08zm21.022-29.626l-4.789-2.76c-.162-.08-.162-.243.081-.405l5.439-3.166c.162-.162.568-.162.73-.081l4.789 2.76c.162.08.162.243-.081.405l-5.438 3.166c-.244.162-.569.162-.731.081zm32.792-1.38l-4.789-2.76c-.162-.08-.162-.243.081-.405l5.439-3.166c.162-.162.568-.162.73-.081l4.79 2.76c.161.08.161.243-.082.406l-5.438 3.165c-.244.081-.569.081-.73.081zm-11.77 15.422c.163.082.163.244-.08.406l-5.439 3.166c-.162.162-.568.162-.73.081l-4.79-2.76c-.162-.08-.162-.243.082-.406l5.438-3.165c.163-.163.568-.163.73-.081zm-28.652 16.559c.162.08.162.243-.081.406l-6.737 3.896c-.162.162-.568.162-.73.08l-4.79-2.759c-.162-.081-.162-.243.082-.406l6.737-3.896c.162-.162.568-.162.73-.081zm-84.496 48.782c.162.081.162.244-.081.406l-6.737 3.896c-.163.162-.569.162-.731.081l-4.789-2.76c-.162-.08-.162-.243.081-.405l6.737-3.896c.163-.163.568-.163.73-.082zm66.07-38.15c.163.082.163.244-.08.407l-6.737 3.896c-.163.162-.568.162-.73.08l-4.79-2.759c-.162-.08-.162-.243.081-.406l6.737-3.896c.163-.162.569-.162.731-.08zM150.65 291.24c.162.081.162.243-.081.406l-6.737 3.896c-.163.162-.568.162-.73.081l-4.79-2.76c-.162-.08-.162-.243.082-.406l6.736-3.896c.163-.162.569-.162.731-.08zm47.565-27.435c.162.081.162.243-.081.406l-44.968 25.974c-.162.162-.568.162-.73.08l-4.79-2.759c-.162-.081-.162-.243.082-.406l44.967-25.974c.163-.162.568-.162.73-.08zm38.636-22.321c.162.08.162.243-.081.405l-8.442 4.87c-.162.163-.568.163-.73.082l-4.79-2.76c-.162-.081-.162-.244.082-.406l8.441-4.87c.163-.162.569-.162.731-.081zm-20.211 11.607c.162.08.162.243-.081.406l-6.737 3.896c-.163.162-.568.162-.73.08l-4.79-2.759c-.162-.081-.162-.243.082-.406l6.736-3.896c.163-.162.569-.162.731-.081zm79.464-45.374l-5.438 3.166c-.163.162-.569.162-.73.081l-12.42-7.143c-.162-.08-.162-.243.082-.405l5.438-3.166c.162-.162.568-.162.73-.081l12.42 7.143c.161.08.161.243-.082.405zm-7.955 4.14c.163.081.163.244-.08.406l-5.44 3.165c-.161.163-.567.163-.73.082l-4.788-2.76c-.163-.081-.163-.244.08-.406l5.439-3.165c.162-.163.568-.163.73-.082zm-41.639 24.026c.162.081.162.243-.081.406l-5.438 3.165c-.163.163-.569.163-.731.082l-4.789-2.76c-.162-.081-.162-.244.081-.406l5.439-3.166c.162-.162.568-.162.73-.08zm-97.89 47.89l-4.788-2.76c-.163-.081-.163-.244.081-.406l5.438-3.166c.163-.162.568-.162.73-.08l4.79 2.759c.162.081.162.243-.081.406l-5.439 3.165c-.243.081-.568.163-.73.081zm113.88-57.143c.162.08.162.243-.081.406l-5.438 3.165c-.163.163-.568.163-.73.081l-4.79-2.76c-.162-.08-.162-.243.081-.405l5.439-3.166c.162-.162.568-.162.73-.081zm17.614-10.146c.162.08.162.243-.081.406l-13.474 7.792c-.163.162-.569.162-.73.08l-4.79-2.759c-.162-.081-.162-.243.081-.406l13.474-7.792c.163-.162.568-.162.73-.081zM108.198 265.59c-.163-.082-.163-.244.08-.406l5.44-3.166c.162-.162.567-.162.73-.08l4.789 2.759c.162.081.162.243-.081.406l-5.439 3.165c-.162.163-.568.163-.73.081zm7.954-4.627c-.162-.081-.162-.243.081-.406l5.439-3.165c.162-.163.568-.163.73-.082l4.79 2.76c.162.081.162.244-.082.406l-5.438 3.166c-.163.162-.568.162-.73.08zm16.072 40.909c.162.081.162.244-.082.406l-8.441 4.87c-.162.162-.568.162-.73.081l-4.79-2.76c-.162-.08-.162-.243.082-.405l8.441-4.87c.163-.163.568-.163.73-.082zm-4.546-47.484c-.162-.08-.162-.243.081-.405l5.439-3.166c.162-.162.568-.162.73-.081l4.79 2.76c.161.08.161.243-.082.405l-5.438 3.166c-.163.162-.568.162-.73.081zm15.91-9.253c-.163-.081-.163-.243.08-.406l5.439-3.165c.162-.163.568-.163.73-.081l4.79 2.76c.162.08.162.243-.082.405l-5.438 3.166c-.163.162-.568.162-.73.08zm-43.345 25.081c-.162-.08-.162-.243.081-.406l5.439-3.165c.162-.162.568-.162.73-.081l4.79 2.76c.162.08.162.243-.082.405l-5.438 3.166c-.163.162-.568.162-.73.081zm35.39-20.454c-.163-.081-.163-.244.08-.406l5.44-3.166c.162-.162.567-.162.73-.08l4.789 2.759c.162.081.162.243-.082.406l-5.438 3.165c-.162.163-.568.163-.73.082zm15.99-9.253c-.162-.082-.162-.244.081-.406l5.438-3.166c.163-.162.569-.162.73-.081l4.79 2.76c.162.08.162.243-.081.406l-5.439 3.165c-.162.162-.568.162-.73.081zm-28.653 58.035c.163.081.163.244-.08.406l-6.738 3.896c-.162.162-.568.162-.73.081l-4.79-2.76c-.162-.08-.162-.243.082-.405l6.737-3.896c.162-.163.568-.163.73-.082l4.79 2.76zm-3.814-6.575c.162.082.162.325-.082.406l-10.47 6.088c-.163.162-.569.162-.73.081l-4.79-2.76c-.162-.08-.162-.243.081-.405l10.471-6.088c.162-.162.568-.162.73-.081l4.79 2.76zm-26.948-17.126c-.163-.081-.163-.244.08-.406l5.439-3.166c.162-.162.568-.162.73-.08l4.79 2.759c.162.081.162.244-.082.406l-5.438 3.165c-.162.163-.568.163-.73.082zm-.325 5.682c.162.162.162.324-.081.406l-6.737 3.896c-.163.162-.568.162-.73.08l-4.79-2.759c-.162-.081-.162-.243.081-.406l6.737-3.896c.163-.162.569-.162.73-.081l4.79 2.76zm17.613 8.279c.163.081.163.325-.08.406l-8.442 4.87c-.163.162-.568.162-.73.081l-4.79-2.76c-.162-.08-.162-.243.082-.406l8.441-4.87c.162-.162.568-.162.73-.08l4.79 2.759zm-10.633-2.273l-5.438 3.166c-.162.162-.568.162-.73.08l-4.79-2.759c-.162-.081-.162-.243.082-.406l5.438-3.165c.162-.163.568-.163.73-.081l4.79 2.76c.162.08.162.324-.082.405zm42.533 1.786c-.244.081-.568.081-.73.081l-4.79-2.76c-.162-.08-.162-.243.081-.406l5.439-3.165c.162-.162.568-.162.73-.081l4.79 2.76c.162.08.162.243-.082.405l-5.438 3.166zm11.12-30.033l4.789 2.76c.162.081.162.244-.081.406l-5.439 3.166c-.162.162-.568.162-.73.08l-4.79-2.759c-.162-.081-.162-.243.082-.406l5.438-3.165c.244-.082.568-.163.73-.082zm-7.955 4.627l4.79 2.76c.162.081.162.243-.082.406l-5.438 3.165c-.163.163-.568.163-.73.081l-4.79-2.76c-.162-.08-.162-.243.081-.405l5.439-3.166c.243-.162.568-.162.73-.08zm31.169-18.344c.243-.162.65-.162.73-.081l4.79 2.76c.162.08.162.243-.082.405l-5.438 3.166c-.162.162-.568.162-.73.081l-4.79-2.76c-.162-.08-.162-.243.082-.405l5.438-3.166zm-15.909 9.172c.243-.081.568-.081.73-.081l4.79 2.76c.162.08.162.243-.082.405l-5.438 3.166c-.162.162-.568.162-.73.081l-4.79-2.76c-.162-.08-.162-.243.082-.405l5.438-3.166zm8.685-4.627l4.789 2.76c.162.081.162.244-.081.406l-5.439 3.166c-.162.162-.568.162-.73.08l-4.789-2.759c-.162-.081-.162-.243.081-.406l5.439-3.165c.243-.163.568-.163.73-.082zm-31.98 18.426l4.789 2.76c.162.08.162.243-.082.405l-5.438 3.166c-.162.162-.568.162-.73.081l-4.79-2.76c-.162-.08-.162-.243.082-.406l5.438-3.165c.244-.162.65-.162.73-.081zm-7.955 4.626l4.789 2.76c.162.081.162.244-.081.406l-5.438 3.165c-.163.163-.569.163-.731.082l-4.789-2.76c-.162-.081-.162-.244.081-.406l5.439-3.166c.243-.162.568-.162.73-.08zm24.27.406l-4.79-2.76c-.162-.08-.162-.243.082-.405l5.438-3.166c.162-.162.568-.162.73-.081l4.79 2.76c.162.08.162.243-.082.405l-5.438 3.166c-.243.162-.568.162-.73.081zm-8.036 4.627l-4.79-2.76c-.161-.081-.161-.243.082-.406l5.438-3.165c.163-.163.568-.163.73-.082l4.79 2.76c.162.081.162.244-.081.406l-5.439 3.166c-.243.162-.568.162-.73.08zm-7.955 4.626l-4.789-2.76c-.162-.08-.162-.243.082-.405l5.438-3.166c.162-.162.568-.162.73-.081l4.79 2.76c.162.08.162.243-.082.406l-5.438 3.165c-.244.081-.568.163-.73.081zm-16.964-4.95c.244-.163.568-.163.73-.082l4.79 2.76c.162.08.162.243-.082.405l-5.438 3.166c-.162.162-.568.162-.73.081l-4.79-2.76c-.162-.08-.162-.243.082-.405l5.438-3.166zm4.14 6.736c-.163-.081-.163-.243.08-.406l5.44-3.165c.161-.163.567-.163.73-.081l4.789 2.76c.162.08.162.243-.082.405l-5.438 3.166c-.162.162-.568.162-.73.08zm68.425-48.376l4.789 2.76c.162.08.162.243-.082.405l-5.438 3.166c-.162.162-.568.162-.73.08l-4.79-2.759c-.162-.08-.162-.243.082-.406l5.438-3.165c.244-.081.568-.163.73-.081zm61.444-26.624c-.162-.08-.162-.243.081-.406l5.439-3.165c.162-.162.568-.162.73-.081l4.79 2.76c.162.08.162.243-.082.405l-5.438 3.166c-.163.162-.568.162-.73.081zm-69.399 31.25l4.79 2.76c.161.081.161.243-.082.406l-5.438 3.165c-.163.163-.568.163-.73.082l-4.79-2.76c-.162-.081-.162-.244.081-.406l5.439-3.166c.243-.162.568-.162.73-.08zm60.065-34.74l4.789 2.76c.162.081.162.243-.081.406l-5.439 3.165c-.162.163-.568.163-.73.081l-4.79-2.76c-.161-.08-.161-.243.082-.405l5.438-3.166c.244-.08.65-.08.73-.08zm17.776-10.552l5.438-3.165c.162-.163.568-.163.73-.082l12.42 7.143c.162.081.162.244-.082.406l-5.438 3.166c-.162.162-.568.162-.73.08l-12.42-7.142c-.162-.081-.162-.243.082-.406zm3.084 4.14c.163.08.163.243-.08.406l-5.44 3.165c-.162.163-.567.163-.73.081l-4.789-2.76c-.162-.08-.162-.243.081-.405l5.439-3.166c.162-.162.568-.162.73-.08zm-13.555 8.279c-.162.081-.568.162-.73.081l-4.79-2.76c-.162-.08-.162-.243.082-.405l5.438-3.166c.162-.162.568-.162.73-.081l4.79 2.76c.162.08.162.243-.082.405l-5.438 3.166zm15.584-.244c-.243.082-.568.163-.73.082l-4.789-2.76c-.162-.081-.162-.244.081-.406l5.438-3.165c.163-.163.569-.163.731-.082l4.789 2.76c.162.081.162.244-.081.406l-5.439 3.165zm-98.62 56.575l-4.788-2.76c-.163-.081-.163-.243.08-.406l5.44-3.165c.162-.163.567-.163.73-.081l4.789 2.76c.162.08.162.243-.082.405l-5.438 3.166c-.243.162-.65.162-.73.081zm88.961-68.993c.163.08.163.243-.08.406l-5.44 3.165c-.161.162-.567.162-.73.081l-4.789-2.76c-.162-.08-.162-.243.082-.405l5.438-3.166c.162-.162.568-.162.73-.081zM199.025 237.1l-4.789-2.76c-.162-.081-.162-.244.082-.406l5.438-3.166c.162-.162.568-.162.73-.08l4.79 2.759c.162.081.162.243-.082.406l-5.438 3.165c-.244.163-.568.163-.73.082zm45.211-40.828c.244-.163.65-.163.73-.081l4.79 2.76c.162.08.162.243-.081.405l-5.439 3.166c-.162.162-.568.162-.73.08l-4.79-2.759c-.162-.081-.162-.243.082-.406l5.438-3.165zm-16.883 10.065l4.79 2.76c.161.08.161.243-.082.405l-5.438 3.166c-.163.162-.569.162-.73.08l-4.79-2.759c-.162-.081-.162-.243.081-.406l5.439-3.165c.243-.081.568-.163.73-.081zm8.929-5.439c.243-.162.568-.162.73-.08l4.79 2.759c.162.081.162.243-.082.406l-5.438 3.165c-.163.163-.568.163-.73.081l-4.79-2.76c-.162-.08-.162-.243.081-.405l5.439-3.166zm-74.757 66.964c-.243.163-.568.163-.73.082l-4.789-2.76c-.162-.081-.162-.244.081-.406l5.439-3.166c.162-.162.568-.162.73-.08l4.789 2.759c.162.081.162.243-.081.406l-5.438 3.165zm-36.2-2.922c.243-.162.568-.162.73-.08l4.789 2.759c.162.081.162.243-.081.406l-5.439 3.165c-.162.163-.568.163-.73.081l-4.79-2.76c-.161-.08-.161-.243.082-.405l5.438-3.166zm7.954-4.626c.243-.163.568-.163.73-.081l4.79 2.76c.162.08.162.243-.082.405l-5.438 3.166c-.162.162-.568.162-.73.08l-4.79-2.759c-.162-.081-.162-.243.082-.406l5.438-3.165zm8.766-4.708l4.789 2.76c.162.08.162.243-.081.406l-5.438 3.165c-.163.162-.569.162-.731.081l-4.789-2.76c-.162-.08-.162-.243.081-.405l5.439-3.166c.162-.081.568-.162.73-.081zm15.91-9.172l4.788 2.76c.162.08.162.243-.081.405l-5.438 3.166c-.163.162-.569.162-.73.081l-4.79-2.76c-.162-.08-.162-.243.081-.405l5.439-3.166c.243-.162.649-.162.73-.081zm-39.936 23.052l4.79 2.76c.161.08.161.243-.082.405l-5.438 3.166c-.163.162-.569.162-.73.081l-4.79-2.76c-.162-.08-.162-.243.081-.406l5.439-3.165c.243-.162.649-.162.73-.081zm31.25-18.426c.244-.08.568-.08.73-.08l4.79 2.76c.162.08.162.243-.082.405l-5.438 3.165c-.162.163-.568.163-.73.082l-4.79-2.76c-.162-.081-.162-.244.082-.406l5.438-3.166zm-39.204 23.052l4.789 2.76c.162.081.162.244-.082.406l-5.438 3.165c-.162.163-.568.163-.73.082l-4.79-2.76c-.162-.081-.162-.244.082-.406l5.438-3.165c.244-.163.568-.163.73-.082zm9.74 20.698c-.162-.08-.162-.243.081-.406l5.438-3.165c.163-.162.569-.162.73-.081l4.79 2.76c.162.08.162.243-.081.405l-5.439 3.166c-.162.162-.568.162-.73.081zm12.825-1.867l-4.79-2.76c-.162-.08-.162-.243.082-.405l5.438-3.166c.162-.162.568-.162.73-.08l4.79 2.759c.162.081.162.243-.082.406l-5.438 3.165c-.243.163-.568.163-.73.081zm-26.3-7.873c-.161-.081-.161-.243.082-.406l5.438-3.165c.163-.163.569-.163.73-.081l4.79 2.76c.162.08.162.243-.081.405l-5.439 3.166c-.162.162-.568.162-.73.08zm-4.95-6.331c.243-.081.568-.162.73-.081l4.79 2.76c.161.08.161.243-.082.405l-5.438 3.166c-.163.162-.569.162-.73.081l-4.79-2.76c-.162-.08-.162-.243.081-.405l5.439-3.166zm14.691 9.497c-.162-.081-.162-.244.081-.406l5.439-3.166c.162-.162.568-.162.73-.08l4.789 2.759c.162.081.162.243-.081.406l-5.438 3.165c-.163.163-.569.163-.73.081zm49.919-46.429l4.789 2.76c.162.081.162.244-.081.406l-5.439 3.165c-.162.163-.568.163-.73.082l-4.79-2.76c-.162-.081-.162-.244.082-.406l5.438-3.166c.244-.162.568-.162.73-.08zm7.954-4.626l4.79 2.76c.162.08.162.243-.082.405l-5.438 3.166c-.163.162-.568.162-.73.081l-4.79-2.76c-.162-.08-.162-.243.082-.406l5.438-3.165c.243-.163.568-.163.73-.081zm35.552 3.003c-.243.162-.65.162-.812 0l-4.789-2.76c-.162-.081-.162-.243.082-.406l5.032-2.922c.244-.08.244-.324.081-.406l-6.899-3.977c-.162-.081-.162-.243.081-.406l6.331-3.652c.163-.163.568-.163.73-.081l12.42 7.142c.162.082.162.244-.082.406l-12.175 7.062zm8.036-13.718l-4.79-2.76c-.161-.08-.161-.243.082-.405l5.438-3.166c.163-.162.569-.162.73-.08l4.79 2.759c.162.081.162.243-.081.406l-5.439 3.165c-.243.163-.568.163-.73.081zm-40.016 32.224c-.244.082-.568.163-.73 0l-4.79-2.76c-.162-.08-.162-.243.081-.405l5.439-3.166c.162-.162.568-.162.73-.081l4.79 2.84c.162.082.162.244-.082.407l-5.438 3.165zm7.954-4.626c-.243.162-.568.162-.73.08l-4.79-2.759c-.162-.081-.162-.243.082-.406l5.438-3.165c.163-.163.568-.163.73-.081l4.79 2.76c.162.08.162.243-.081.405l-5.439 3.166zm8.036-4.627c-.244.162-.568.162-.73.081l-4.79-2.76c-.162-.08-.162-.243.082-.405l5.438-3.166c.162-.162.568-.162.73-.081l4.79 2.76c.162.08.162.243-.082.406l-5.438 3.165zm7.954-4.626c-.243.162-.568.162-.73.08l-4.789-2.759c-.162-.081-.162-.244.081-.406l5.438-3.165c.163-.163.569-.163.731-.082l4.789 2.76c.162.081.162.244-.081.406l-5.439 3.166zm-20.21-12.176c.162-.08.568-.162.73-.08l4.789 2.759c.162.081.162.243-.081.406l-5.439 3.165c-.162.163-.568.163-.73.081l-4.789-2.76c-.162-.08-.162-.243.081-.405l5.438-3.166zm7.954-4.626c.243-.082.568-.082.73-.082l4.79 2.76c.162.081.162.244-.082.406l-5.438 3.166c-.162.162-.568.162-.73.08l-4.79-2.759c-.162-.081-.162-.243.082-.406l5.438-3.165zm22.159-12.42l4.789 2.76c.162.082.162.244-.081.406l-5.439 3.166c-.162.162-.568.162-.73.081l-4.789-2.76c-.162-.08-.162-.243.081-.405l5.438-3.166c.244-.162.569-.162.731-.081zm-10.39 5.683c.244-.163.569-.163.73-.082l4.79 2.76c.162.081.162.244-.081.406l-9.254 5.357c-.162.163-.568.163-.73.081l-4.789-2.76c-.162-.08-.162-.243.081-.405l9.253-5.357zm17.695-10.228c.162-.162.568-.162.73-.08l4.79 2.759c.162.081.162.243-.082.406l-5.438 3.165c-.162.163-.568.163-.73.082l-4.79-2.76c-.162-.081-.162-.244.082-.406l5.438-3.166zm6.818 10.796l-4.789-2.76c-.162-.081-.162-.243.082-.406l5.438-3.165c.162-.163.568-.163.73-.082l4.79 2.76c.162.081.162.244-.082.406l-5.438 3.166c-.163.162-.568.162-.73.08z"/></g></g><g><g opacity=".4"><path d="M192.288 277.927l1.137.65 29.789 17.207 52.922-30.6 1.055-.65-30.844-17.775z"/></g><g><g><path fill="#0097a4" d="M275.649 265.509l-29.302-16.965-52.435 30.276 29.302 16.964z"/></g><g opacity=".45"><path d="M275.649 265.509l-29.302-16.965-52.435 30.276 29.302 16.964z"/></g></g></g></g></g><g><g><g><g><path fill="#f0f0f0" d="M71.51 270.216s-.487.325-1.461.487c-.812.081-1.624-.08-2.192-.406-.974-.568-1.786-2.029-1.786-3.246V156.58l3.572 2.029v110.47c0 .893.406 1.38 1.055 1.38 0 0 .406 0 .812-.244z"/></g><g><g><g><path fill="#fafafa" d="M70.617 270.054c-.568 0-.65-.65-.65-.893V146.597l4.952-2.841c.649-.325 1.136-1.948 2.11-5.439.487-1.866 1.299-4.626 1.705-4.95l45.048-26.056c.406.162 1.218 1.705 1.705 2.597 1.136 1.948 1.785 3.004 2.516 3.004.162 0 .243 0 .325-.082L255.6 39.292v122.077c0 1.055-.73 2.354-1.705 2.922l-182.629 105.6c-.243.082-.406.163-.65.163z"/></g><g><path fill="#e0e0e0" d="M256.168 38.561l-.081.047v-.047zm-.081.047V161.45c0 1.137-.812 2.679-1.867 3.247l-182.792 105.6a1.566 1.566 0 0 1-.811.244c-.65 0-1.055-.487-1.055-1.38V146.353l5.194-3.003c1.056-.65 2.76-9.822 3.815-10.39l45.049-26.217h.162c1.136 0 3.247 5.682 4.302 5.682h.162zm-127.354 74.628c-.162.082-.405.163-.568.163-1.055 0-1.704-1.137-2.922-3.247-.406-.73-1.055-1.867-1.46-2.273l-44.725 25.812c-.324.487-1.055 3.003-1.542 4.708-1.055 3.733-1.542 5.276-2.273 5.681l-4.789 2.76v122.321s0 .487.163.487c.08 0 .162 0 .406-.162l182.872-105.6c.812-.406 1.461-1.624 1.461-2.517V40.103z"/></g></g></g><g><g><path fill="#95c81f" d="M67.776 152.197c-.974-.568-1.786-2.029-1.786-3.247v-14.772c0-1.218.812-2.679 1.867-3.247l182.873-105.6c1.055-.568 2.678-.65 3.652-.081.974.568 1.786 2.029 1.786 3.246V43.27c0 1.218-.812 2.679-1.867 3.247L71.51 152.116c-1.056.568-2.679.65-3.734.081z"/></g><g opacity=".5"><path fill="#fff" d="M256.168 28.172c-.162-.974-.893-1.299-1.867-.812L71.428 132.96a4.249 4.249 0 0 0-1.298 1.38l-3.572-2.03c.325-.567.812-1.135 1.299-1.379l182.873-105.6c1.055-.568 2.678-.65 3.652-.081.893.487 1.624 1.785 1.786 2.922z"/></g><g opacity=".15"><path d="M70.13 134.421c-.325.569-.568 1.218-.568 1.867v22.403l-3.572-2.03V134.26v-.244c0-.162 0-.324.081-.487.081-.405.244-.811.487-1.136z"/></g><g><path fill="#95c81f" d="M256.168 28.496v10.146l-127.922 73.864c-1.055.568-1.866.081-1.866-1.055v-3.815c0-1.218-.812-1.705-1.867-1.055L78.57 132.96c-1.055.567-1.867 2.11-1.867 3.246v3.815c0 1.217-.811 2.679-1.867 3.247l-5.194 3.003v-10.065c0-1.217.811-2.679 1.867-3.247L254.3 27.36c1.055-.568 1.867-.081 1.867 1.136z"/></g><g><g><path fill="#fff" d="M247.32 34.828c1.3-.731 2.355-.163 2.355 1.38 0 1.542-1.056 3.327-2.354 4.139-1.3.73-2.354.162-2.354-1.38 0-1.542 1.055-3.409 2.354-4.14z"/></g><g><path fill="#fff" d="M238.717 39.779c1.299-.73 2.354-.163 2.354 1.38 0 1.542-1.055 3.328-2.354 4.14-1.299.73-2.354.162-2.354-1.38 0-1.543 1.055-3.41 2.354-4.14z"/></g><g><path fill="#fff" d="M230.194 44.73c1.299-.73 2.354-.162 2.354 1.38 0 1.542-1.055 3.328-2.354 4.14-1.299.73-2.354.162-2.354-1.38 0-1.543 1.055-3.41 2.354-4.14z"/></g></g></g><g><g><g><path fill="#e6e6e6" d="M256.168 38.561V50.9L69.562 158.69v-12.338l3.896-2.273c1.055-.568 1.38-1.542 1.867-3.246l1.298-4.546c.406-1.623.812-2.678 1.867-3.247l45.13-26.055c1.055-.568 1.867-.649 2.678.65l1.624 2.922c.568 1.055.893 1.623 1.948 1.055z"/></g><g><path fill="#e0e0e0" d="M69.562 146.353v12.338l-3.49-2.11v-12.257z"/></g></g><g><g opacity=".5"><path fill="#455a64" d="M78.247 147.246l-3.004 1.704 1.137-2.191a.693.693 0 0 0 0-.568c-.081-.081-.244 0-.325.162l-1.623 3.084s0 .082-.082.082v.324s0 .082.082.082l1.623 1.217h.162c.082 0 .163-.081.163-.243.08-.244.08-.406 0-.487l-1.137-.893 3.004-1.705c.162-.081.243-.325.243-.487 0-.081-.081-.162-.243-.081z"/></g><g opacity=".5"><path fill="#455a64" d="M80.763 145.785l3.003-1.705-1.136-.892c-.081-.082-.081-.325 0-.487.08-.244.243-.325.324-.244l1.624 1.218.08.08v.325s0 .082-.08.082l-1.624 3.084c-.08.081-.08.162-.162.162h-.162c-.081-.08-.081-.324 0-.568l1.136-2.191-3.003 1.704c-.163.081-.244 0-.244-.243 0 0 .081-.244.244-.325z"/></g><g opacity=".5"><path fill="#455a64" d="M90.503 137.262c0-.162-.162-.162-.243 0l-.406.974c-.73-.08-1.543.568-2.11 1.786-.731 1.542-.731 3.409 0 4.14.405.324.811.324 1.298.08.487-.243.974-.811 1.299-1.623.08-.162.08-.406 0-.487-.081-.08-.244 0-.325.163-.568 1.136-1.461 1.704-2.03 1.136-.567-.568-.567-1.867 0-3.084.407-.812.975-1.3 1.462-1.38l-.325.73c-.081.163 0 .406.081.325l1.218-.812c.081-.08.162-.243.162-.324z"/></g><g opacity=".5"><path fill="#455a64" d="M122.402 112.506l1.055-2.273c.163-.243.163-.568 0-.73-.162-.163-.324 0-.487.243l-1.055 2.273-1.055-1.055c-.162-.163-.325 0-.487.243-.162.244-.162.568 0 .73l1.055 1.056-1.055 2.273c-.162.243-.162.568 0 .73.081.081.162.081.244 0l.243-.243 1.055-2.273 1.055 1.055c.082.081.163.081.244 0l.243-.243c.163-.244.163-.569 0-.731z"/></g><g><path fill="#fafafa" d="M94.4 140.103v-3.815c0-1.217.81-2.678 1.866-3.247l147.402-85.145c1.055-.569 1.867-.082 1.867 1.055v3.815c0 1.217-.812 2.678-1.867 3.246l-147.32 85.146c-1.056.65-1.949.163-1.949-1.055z"/></g><g><path fill="none" stroke="#e0e0e0" stroke-miterlimit="20" stroke-width=".81" d="M242.532 49.925v0l.487 1.055c0 .081.081.081.162.081l1.136-.406c.163-.08.244.163.082.406l-.812 1.542c-.081.082-.081.244-.081.325l.162 1.38c0 .243-.162.487-.325.487l-.974-.162c-.08 0-.162 0-.162.08l-.974 1.3c-.162.162-.325.162-.325-.163l.163-1.623c0-.081 0-.163-.081-.244l-.812-.568c-.163-.081-.081-.406.081-.568l1.136-.893c.082-.081.163-.162.163-.243l.487-1.624c.162-.162.406-.324.487-.162z"/></g><g opacity=".5"><g opacity=".5"><g opacity=".5"><path fill="#455a64" d="M247.808 47.49c-.244 0-.487-.081-.569-.325-.162-.325-.08-.73.244-.893l5.357-3.084c.325-.162.73-.081.893.243.162.325.081.73-.243.893l-5.358 3.085c-.162 0-.243.08-.324.08z"/></g></g><g opacity=".5"><g opacity=".5"><path fill="#455a64" d="M247.808 50.493c-.244 0-.487-.081-.569-.325-.162-.324-.08-.73.244-.893l5.357-3.084c.325-.162.73-.081.893.244.162.324.081.73-.243.892l-5.358 3.085c-.162.081-.243.081-.324.081z"/></g></g><g opacity=".5"><g opacity=".5"><path fill="#455a64" d="M247.808 53.577c-.244 0-.487-.08-.569-.324-.162-.325-.08-.73.244-.893l5.357-3.085c.325-.162.73-.08.893.244.162.325.081.73-.243.893l-5.358 3.084c-.162.081-.243.081-.324.081z"/></g></g></g></g></g><g><g opacity=".5"><g opacity=".5"><g opacity=".5"><path fill="#455a64" d="M75.406 162.1c-.244 0-.487-.081-.569-.325-.162-.325-.08-.73.244-.893l5.357-3.084c.325-.162.73-.081.893.243.162.325.081.73-.244.893l-5.357 3.085c-.08.08-.162.08-.324.08z"/></g></g><g opacity=".5"><g opacity=".5"><path fill="#455a64" d="M75.406 165.184c-.244 0-.487-.081-.569-.324-.162-.325-.08-.731.244-.893l5.357-3.085c.325-.162.73-.08.893.244.162.324.081.73-.244.893l-5.357 3.084c-.08.081-.162.081-.324.081z"/></g></g><g opacity=".5"><g opacity=".5"><path fill="#455a64" d="M75.406 168.269c-.244 0-.487-.082-.569-.325-.162-.325-.08-.73.244-.893l5.357-3.084c.325-.163.73-.082.893.243.162.325.081.73-.244.893l-5.357 3.084c-.08 0-.162.082-.324.082z"/></g></g></g><g><g><g><path fill="#e6e6e6" d="M122.646 134.99v4.707c0 .974.65 1.38 1.542.893l63.23-36.607v-8.198l-63.23 36.607c-.812.487-1.542 1.623-1.542 2.597z"/></g><g><path fill="#0097a4" d="M195.373 91.158c.811-.487 1.542-.08 1.542.893v4.708c0 .974-.65 2.11-1.542 2.597l-7.955 4.627v-8.198z"/></g><g><path fill="#fafafa" d="M191.964 99.356c-.244.163-.487.163-.65.082-.324-.163-.487-.65-.487-1.299 0-1.218.65-2.679 1.461-3.166.163-.08.244-.162.406-.162.081 0 .163 0 .244.081.324.163.487.65.487 1.299 0 1.299-.65 2.678-1.461 3.165zm2.84-1.704l-.892-.244c.08-.405.162-.73.162-1.136 0-.893-.325-1.623-.812-1.867-.405-.243-.811-.162-1.298.081-.974.569-1.786 2.192-1.786 3.734 0 .893.325 1.624.812 1.867.162.081.324.162.568.162.243 0 .487-.08.73-.243.569-.325 1.137-1.055 1.461-1.948l.893.243h.081c.163 0 .244-.08.325-.243a.446.446 0 0 0-.243-.406z"/></g></g></g><g><path fill="#0097a4" d="M96.347 148.382l-9.172 5.276c-.812.487-1.542 1.624-1.542 2.598v4.707c0 .974.65 1.38 1.542.893l9.172-5.276c.812-.487 1.542-1.623 1.542-2.597v-4.708c0-.974-.649-1.299-1.542-.893z"/></g><g><g><path fill="#0097a4" d="M243.912 63.236c-1.948 1.137-3.572 3.897-3.572 6.17 0 2.272 1.624 3.165 3.572 2.029 1.948-1.137 3.571-3.897 3.571-6.17 0-2.272-1.623-3.165-3.571-2.029z"/></g><g><g><g><path fill="#fff" d="M243.506 66.808c-.081 0-.244 0-.325-.081-.243-.163-.325-.406-.325-.73 0-.569.406-1.3.974-1.624.325-.162.569-.162.812-.081.244.162.325.406.325.73 0 .568-.406 1.299-.974 1.624-.163.162-.325.162-.487.162z"/></g></g><g><g><path fill="#fff" d="M245.291 67.051c-.324-.162-.811-.162-1.217.082l-.487.324c-.893.487-1.623 1.705-1.623 2.76v.406c.487.243 1.217.243 1.948-.244.73-.406 1.46-1.217 1.948-2.029v-.081c0-.568-.163-.974-.569-1.218z"/></g></g></g></g><g><g><path fill="#0097a4" d="M231.33 74.194v-1.217c0-1.461-.892-2.11-1.948-1.461-1.055.649-1.948 2.272-1.948 3.733v1.137c0 .73-.243 1.542-.649 2.191-.081.163-.162.406-.162.569 0 .324.243.487.487.405l4.545-2.597c.244-.162.487-.568.487-.974a.62.62 0 0 0-.162-.406c-.406-.243-.65-.65-.65-1.38z"/></g><g><path fill="#0097a4" d="M230.356 78.01c0 .649-.405 1.46-.974 1.785-.487.325-.974 0-.974-.73z"/></g></g><g><g><path fill="#0097a4" d="M215.178 86.532c0-.081 0-.162-.081-.162h-.163l-.974.568a.175.175 0 0 0-.162.162c-.081.081-.081.162-.081.244v1.136c0 .081 0 .162.081.162h.162l.974-.568a.175.175 0 0 0 .163-.162c.08-.081.08-.163.08-.244zm-.65-6.331c-.324.162-.568.406-.892.811-.244.325-.487.65-.65.974-.162.325-.324.731-.406 1.056-.08.324-.162.649-.162.893 0 .08.081.162.081.162h.081l.893-.487c.082 0 .163-.081.163-.244 0-.08 0-.243.08-.406l.244-.487c.082-.162.244-.243.487-.405.244-.082.406-.163.487-.082.082 0 .163.163.163.406 0 .163 0 .325-.081.487-.082.244-.163.406-.244.568-.081.163-.243.325-.325.569-.08.243-.243.405-.324.649l-.244.73c-.081.244-.081.488-.081.731 0 .081.081.162.081.162h.163l.892-.487a.175.175 0 0 0 .163-.162c.08-.081.08-.162.08-.243 0-.163.082-.406.163-.569.081-.162.163-.406.244-.568.08-.162.243-.406.324-.568a2.43 2.43 0 0 0 .325-.65l.244-.73c.08-.243.08-.568.08-.812 0-.405-.08-.649-.162-.892a.831.831 0 0 0-.405-.487c-.163-.163-.406-.163-.65-.163-.243 0-.568.081-.811.244z"/></g></g></g><g><g><path fill="#f0f0f0" d="M81.574 174.6l36.04-20.78c.973-.568 1.785-.08 1.785 1.056v76.785c0 1.137-.812 2.516-1.786 3.085l-36.039 20.779c-.974.568-1.785.08-1.785-1.055v-76.786c0-1.217.811-2.597 1.785-3.084z"/></g><g><g><path fill="#fafafa" d="M88.15 178.333l22.889-13.23c.974-.568 1.785-.162 1.785.893s-.811 2.354-1.785 2.922l-22.89 13.23c-.974.569-1.786.163-1.786-.892.082-1.056.812-2.354 1.786-2.922z"/></g><g><g><path fill="#0097a4" d="M86.445 188.236v1.38c0 .65.487.974 1.055.65l1.217-.65c.568-.325 1.056-1.136 1.056-1.786v-1.38c0-.649-.488-.974-1.056-.568l-1.217.65c-.65.162-1.055.974-1.055 1.704z"/></g><g><path fill="#fafafa" d="M93.02 185.07c0 1.056.81 1.462 1.785.893l16.234-9.415c.974-.568 1.785-1.867 1.785-2.922 0-1.055-.811-1.461-1.785-.893l-16.234 9.415c-1.055.569-1.786 1.867-1.786 2.922z"/></g><g><path fill="#0097a4" d="M86.445 195.866v1.38c0 .65.487.974 1.055.65l1.217-.65c.568-.325 1.056-1.137 1.056-1.786v-1.38c0-.65-.488-.974-1.056-.568l-1.217.65c-.65.162-1.055.973-1.055 1.704z"/></g><g><path fill="#fafafa" d="M93.02 192.7c0 1.056.81 1.461 1.785.893l16.234-9.415c.974-.569 1.785-1.867 1.785-2.922 0-1.056-.811-1.461-1.785-.893l-16.234 9.415c-1.055.568-1.786 1.867-1.786 2.922z"/></g><g><path fill="#0097a4" d="M86.445 203.415v1.38c0 .649.487.973 1.055.649l1.217-.65c.568-.324 1.056-1.136 1.056-1.785v-1.38c0-.65-.488-.974-1.056-.568l-1.217.649c-.65.244-1.055 1.055-1.055 1.705z"/></g><g><path fill="#fafafa" d="M93.02 200.33c0 1.055.81 1.461 1.785.893l16.234-9.415c.974-.569 1.785-1.867 1.785-2.923 0-1.055-.811-1.46-1.785-.892l-16.234 9.415c-1.055.568-1.786 1.867-1.786 2.922z"/></g><g><path fill="#0097a4" d="M86.445 211.044v1.38c0 .65.487.974 1.055.65l1.217-.65c.568-.324 1.056-1.136 1.056-1.785v-1.38c0-.65-.488-.974-1.056-.568l-1.217.649c-.65.243-1.055 1.055-1.055 1.704z"/></g><g><path fill="#fafafa" d="M93.02 207.96c0 1.055.81 1.461 1.785.893l16.234-9.416c.974-.568 1.785-1.867 1.785-2.922 0-1.055-.811-1.46-1.785-.893l-16.234 9.416c-1.055.568-1.786 1.867-1.786 2.922z"/></g></g></g><g><g><path fill="#fafafa" d="M87.987 220.298l22.89-13.23c.973-.569 1.785-.163 1.785.892s-.812 2.354-1.786 2.922l-22.89 13.23c-.973.569-1.785.163-1.785-.892.081-1.055.893-2.354 1.786-2.922z"/></g><g><g><path fill="#0097a4" d="M86.282 230.2v1.38c0 .65.487.974 1.055.65l1.218-.65c.568-.325 1.055-1.136 1.055-1.786v-1.38c0-.649-.487-.974-1.055-.568l-1.218.65c-.568.162-1.055.974-1.055 1.704z"/></g><g><path fill="#fafafa" d="M92.857 227.035c0 1.055.812 1.46 1.786.892l16.233-9.415c.974-.568 1.786-1.867 1.786-2.922 0-1.055-.812-1.461-1.786-.893l-16.233 9.416c-.974.568-1.786 1.866-1.786 2.922z"/></g><g><path fill="#0097a4" d="M86.282 237.83v1.38c0 .65.487.974 1.055.65l1.218-.65c.568-.325 1.055-1.136 1.055-1.786v-1.38c0-.649-.487-.974-1.055-.568l-1.218.65c-.568.162-1.055.974-1.055 1.704z"/></g><g><path fill="#fafafa" d="M92.857 234.664c0 1.056.812 1.461 1.786.893l16.233-9.415c.974-.568 1.786-1.867 1.786-2.922 0-1.055-.812-1.461-1.786-.893l-16.233 9.415c-.974.569-1.786 1.867-1.786 2.922z"/></g><g><path fill="#0097a4" d="M86.282 245.379v1.38c0 .649.487.974 1.055.649l1.218-.65c.568-.324 1.055-1.136 1.055-1.785v-1.38c0-.65-.487-.974-1.055-.65l-1.218.65c-.568.325-1.055 1.136-1.055 1.786z"/></g><g><path fill="#fafafa" d="M92.857 242.294c0 1.056.812 1.461 1.786.893l16.233-9.415c.974-.569 1.786-1.867 1.786-2.922 0-1.056-.812-1.461-1.786-.893l-16.233 9.415c-.974.568-1.786 1.867-1.786 2.922z"/></g></g></g></g><g><g><g><path fill="#0097a4" d="M129.789 144.81c1.785-1.054 3.246-.161 3.246 1.868s-1.46 4.626-3.246 5.682c-1.786 1.055-3.247.162-3.247-1.867 0-2.11 1.46-4.627 3.247-5.682z"/></g><g><g><text dominant-baseline="text-before-edge" style="font-kerning:normal" fill="#fafafa" font-family="'Rubik','Rubik-Bold'" font-size="3" font-style="none" font-weight="700" transform="translate(128 147)"><tspan>M</tspan></text></g></g><g><path fill="#455a64" d="M137.987 143.837c0 1.055.811 1.46 1.785.893l22.24-12.825c.975-.568 1.786-1.867 1.786-2.922 0-1.055-.811-1.461-1.786-.893l-22.24 12.825c-.974.568-1.785 1.867-1.785 2.922z"/></g><g><path fill="#e0e0e0" d="M170.779 123.626l73.051-42.127c.812-.487 1.38-.162 1.38.569 0 .73-.649 1.704-1.38 2.191l-73.051 42.127c-.812.487-1.38.243-1.38-.569-.081-.811.568-1.785 1.38-2.191z"/></g><g><path fill="none" stroke="#e0e0e0" stroke-linecap="round" stroke-miterlimit="20" d="M123.214 160.07l125.243-72.402"/></g></g><g><g><path fill="#0097a4" d="M129.789 159.99c1.785-1.056 3.246-.163 3.246 1.866 0 2.03-1.46 4.627-3.246 5.682-1.786 1.055-3.247.162-3.247-1.867s1.46-4.626 3.247-5.682z"/></g><g><g><text dominant-baseline="text-before-edge" style="font-kerning:normal" fill="#fafafa" font-family="'Rubik','Rubik-Bold'" font-size="3" font-style="none" font-weight="700" transform="translate(128 162)"><tspan>H</tspan></text></g></g><g><path fill="#455a64" d="M137.987 159.097c0 1.055.811 1.46 1.785.892l22.24-12.824c.975-.568 1.786-1.867 1.786-2.922 0-1.055-.811-1.461-1.786-.893l-22.24 12.825c-.974.568-1.785 1.866-1.785 2.922z"/></g><g><path fill="#e0e0e0" d="M170.779 138.804l73.051-42.126c.812-.487 1.38-.162 1.38.568s-.649 1.705-1.38 2.192l-73.051 42.126c-.812.487-1.38.244-1.38-.568-.081-.73.568-1.705 1.38-2.192z"/></g><g><path fill="none" stroke="#e0e0e0" stroke-linecap="round" stroke-miterlimit="20" d="M123.214 175.25l125.243-72.322"/></g></g><g><g><path fill="#0097a4" d="M129.789 175.25c1.785-1.056 3.246-.163 3.246 1.866 0 2.03-1.46 4.627-3.246 5.682-1.786 1.055-3.247.162-3.247-1.867 0-2.03 1.46-4.627 3.247-5.682z"/></g><g><g><text dominant-baseline="text-before-edge" style="font-kerning:normal" fill="#fafafa" font-family="'Rubik','Rubik-Bold'" font-size="3" font-style="none" font-weight="700" transform="translate(128 177)"><tspan>L</tspan></text></g></g><g><path fill="#455a64" d="M137.987 174.275c0 1.055.811 1.461 1.785.893l22.24-12.825c.975-.568 1.786-1.867 1.786-2.922 0-1.055-.811-1.46-1.786-.893l-22.24 12.825c-.974.568-1.785 1.867-1.785 2.922z"/></g><g><path fill="#e0e0e0" d="M170.779 154.064l73.051-42.126c.812-.487 1.38-.163 1.38.568 0 .73-.649 1.704-1.38 2.191l-73.051 42.127c-.812.487-1.38.243-1.38-.568-.081-.812.568-1.786 1.38-2.192z"/></g><g><path fill="none" stroke="#e0e0e0" stroke-linecap="round" stroke-miterlimit="20" d="M123.214 190.428l125.243-72.322"/></g></g><g><g><path fill="#0097a4" d="M129.789 190.428c1.785-1.056 3.246-.163 3.246 1.866 0 2.11-1.46 4.627-3.246 5.682-1.786 1.055-3.247.163-3.247-1.867 0-2.11 1.46-4.626 3.247-5.681z"/></g><g><g><text dominant-baseline="text-before-edge" style="font-kerning:normal" fill="#fafafa" font-family="'Rubik','Rubik-Bold'" font-size="3" font-style="none" font-weight="700" transform="translate(128 193)"><tspan>J</tspan></text></g></g><g><path fill="#455a64" d="M137.987 189.454c0 1.055.811 1.46 1.785.892l22.24-12.824c.975-.568 1.786-1.867 1.786-2.922 0-1.055-.811-1.461-1.786-.893l-22.24 12.825c-.974.568-1.785 1.866-1.785 2.922z"/></g><g><path fill="#e0e0e0" d="M170.779 169.243l73.051-42.127c.812-.487 1.38-.162 1.38.568s-.649 1.705-1.38 2.192l-73.051 42.126c-.812.487-1.38.244-1.38-.568 0-.812.568-1.704 1.38-2.191z"/></g><g><path fill="none" stroke="#e0e0e0" stroke-linecap="round" stroke-miterlimit="20" d="M123.214 205.687l125.243-72.32"/></g></g><g><g><path fill="#0097a4" d="M129.789 205.606c1.785-1.055 3.246-.162 3.246 1.867 0 2.03-1.46 4.627-3.246 5.682-1.786 1.055-3.247.162-3.247-1.867 0-2.03 1.46-4.627 3.247-5.682z"/></g><g><g><text dominant-baseline="text-before-edge" style="font-kerning:normal" fill="#fafafa" font-family="'Rubik','Rubik-Bold'" font-size="3" font-style="none" font-weight="700" transform="translate(128 208)"><tspan>A</tspan></text></g></g><g><path fill="#455a64" d="M137.987 204.713c0 1.055.811 1.461 1.785.893l22.24-12.824c.975-.569 1.786-1.867 1.786-2.923 0-1.055-.811-1.46-1.786-.892l-22.24 12.824c-.974.568-1.785 1.867-1.785 2.922z"/></g><g><path fill="#e0e0e0" d="M170.779 184.421l73.051-42.126c.812-.487 1.38-.163 1.38.568 0 .73-.649 1.704-1.38 2.191l-73.051 42.127c-.812.487-1.38.243-1.38-.568-.081-.73.568-1.705 1.38-2.192z"/></g><g><path fill="none" stroke="#e0e0e0" stroke-linecap="round" stroke-miterlimit="20" d="M123.214 220.866l125.243-72.321"/></g></g><g><g><path fill="#0097a4" d="M129.789 220.866c1.785-1.055 3.246-.163 3.246 1.867 0 2.029-1.46 4.626-3.246 5.681-1.786 1.056-3.247.163-3.247-1.866 0-2.11 1.46-4.627 3.247-5.682z"/></g><g><g><text dominant-baseline="text-before-edge" style="font-kerning:normal" fill="#fafafa" font-family="'Rubik','Rubik-Bold'" font-size="3" font-style="none" font-weight="700" transform="translate(128 223)"><tspan>M</tspan></text></g></g><g><path fill="#455a64" d="M137.987 219.892c0 1.055.811 1.46 1.785.893l22.24-12.825c.975-.568 1.786-1.867 1.786-2.922 0-1.055-.811-1.461-1.786-.893l-22.24 12.825c-.974.568-1.785 1.867-1.785 2.922z"/></g><g><path fill="#e0e0e0" d="M170.779 199.68l73.051-42.126c.812-.487 1.38-.162 1.38.569 0 .73-.649 1.704-1.38 2.191l-73.051 42.127c-.812.487-1.38.243-1.38-.569-.081-.811.568-1.785 1.38-2.191z"/></g><g><path fill="none" stroke="#e0e0e0" stroke-linecap="round" stroke-miterlimit="20" d="M123.214 236.125l125.243-72.402"/></g></g></g></g><g><g><path fill="#37474f" d="M282.548 124.356c-.163.893-.244 1.705-.406 2.517-3.166 18.1-5.763 36.282-8.604 43.506-.812 2.11-2.191 6.331-8.036 7.711-1.38.325-7.467 1.299-17.045 2.11-6.331.569-23.945 1.624-23.945 1.624l29.708-17.127c1.055-.65 1.867-2.11 1.867-3.247v-37.5z"/></g><g><path fill="#263238" d="M298.538 32.23c-11.77-3.084-19.075 5.276-23.539 12.987-4.464 7.711-5.438 14.773-2.76 17.614 2.679 2.76 17.695 6.412 17.695 6.412s6.494-.406 10.309-7.63c3.814-7.224 12.013-25.73-1.705-29.383z"/></g><g><g><g><path fill="#263238" d="M295.129 89.86c-.893 5.195-7.549 26.46-12.744 36.931-.08 0-.162.082-.243.082-5.032 2.354-19.318 1.136-25.974-.325V59.34c2.03-.162 8.36.082 10.714 0h8.361l1.136 1.137c1.867 1.704 5.6 5.032 9.497 6.737l.974-3.003s.08 0 .162.08c.568.407 3.003 2.273 4.789 3.897.162.162.325.324.487.406.325.243.568.568.812.73.243.244.487.487.65.73 2.11 2.923 3.57 7.55 1.379 19.806z"/></g></g><g><g><g><g><path fill="#37474f" d="M284.252 31.824c.569.812.974 1.867 1.218 2.598.406 1.38-.568 3.49-1.055 4.626-1.137 2.598-2.273 4.465-2.273 4.465l-3.247 4.464-1.38 4.545s-.892-.324-1.055-1.785c-.162-2.11-.162-4.302.163-9.173.324-4.87.324-8.928 1.704-10.39 1.055-1.135 2.679-1.379 4.14-.973.649.243 1.217.893 1.785 1.623z"/></g><g><path fill="#37474f" d="M300.405 31.256c-4.22-1.299-8.685 1.055-9.984 5.276-1.299 4.22 1.055 8.685 5.276 9.984 4.22 1.298 8.685-1.055 9.984-5.276 1.299-4.22-1.055-8.685-5.276-9.984z"/></g></g><g><path fill="#f8a17a" d="M280.762 43.675c-1.136.487-1.38-1.948-2.03-2.841-.81-1.055-3.002-2.192-4.463-.081-1.705 2.354-.65 5.357.649 6.574 1.948 1.867 3.49.163 3.49.163l-3.084 11.85c.73 3.41 4.22 6.25 8.928 10.065 3.49-2.435 2.76-5.438 2.76-5.438l1.218-3.977s2.11 1.136 3.652 1.38c2.598.405 4.546-1.218 6.088-3.734 2.516-3.896 5.032-11.12 5.925-19.968-2.11-3.003-11.607-5.52-18.506-3.652-1.786 7.548-3.49 9.172-4.627 9.659z"/></g><g><path fill="#f0997a" d="M288.23 59.99s-5.195-2.76-6.9-4.221c-1.136-.974-1.38-1.623-1.704-2.516 0 0-.163.974.568 2.435 1.055 2.191 7.63 5.763 7.63 5.763z"/></g><g><path fill="#37474f" d="M303.895 37.181c-.406-.568-.893-1.055-1.46-1.542-2.274-2.029-4.546-4.14-7.225-5.682-1.786-1.055-3.652-1.866-5.682-2.191-1.948-.325-3.328-.081-5.032.974-1.055.65-2.273 1.867-2.354 3.247-.081 1.136.974 1.623 1.136 2.597 0 .243-.162 3.41-.568 3.247 1.542.568 3.247.162 4.14-1.299.162-.325.487-.812.65-1.136.243-.406.648-.487 1.054-.244.893.487 1.38 1.055 2.11 1.542 2.192 1.38 4.952 2.598 7.55 2.841 1.623.163 3.408.244 4.95-.406 1.056-.405 1.462-.568.894-1.623-.082-.162-.163-.243-.163-.325z"/></g></g><g><path fill="#455a64" d="M299.837 49.6c-1.299.081-3.004-.65-3.004-1.786 0-.487.163-.811.569-1.055.487-.406 1.298-.568 2.029-.568.406 0 .893 0 1.38.162.324.082.568.325.811.65.406.974-.487 2.597-1.785 2.597zm-9.903-2.435c-2.76-.162-3.734-1.542-3.734-2.678 0-1.137 2.517-2.76 4.87-1.3.163.082.325.163.406.244.487.406.812.73.974 1.137.73 1.46-.405 2.76-2.516 2.597zm12.744-1.786s-.569-.487-2.03-.568h-.405c-.65 0-1.218.081-1.624.163-1.217.243-1.867.568-3.084.162-1.38-.406-1.461-1.299-3.003-2.516-.487-.406-1.137-.812-2.11-1.299h-.082c-.081-.081-.162-.081-.243-.162-1.786-.812-4.302-1.137-6.25-1.137h-.325c-1.705 0-2.922.081-2.922.081l-1.38 2.03-.162.243s.243.406.73 1.055c.325.406.73.974 1.218 1.461 1.38 1.461 3.409 3.166 5.925 3.572 3.247.568 5.438.162 6.737-.081.812-.163 1.299-.244 1.623 0l.568 1.623s2.354 2.03 5.033 1.38c1.217-1.299 1.948-4.059 1.786-6.007z"/></g></g><g><g><path fill="#37474f" d="M309.82 122.895c-4.058 3.572-22.808 14.367-22.808 14.367.244-2.516-2.922-6.412-5.114-7.386l16.559-16.558s-1.299-4.79-2.273-8.036c-.487-1.624-2.03-5.925-3.003-8.28.974-3.246 1.623-5.843 1.867-7.223 2.191-12.257.73-16.883-1.299-19.724-.162-.244-.325-.487-.65-.73l-.811-.813c-.162-.162-.325-.243-.487-.405-.243-.244-.487-.406-.73-.65 6.006 3.166 8.928 3.896 12.743 14.448 3.896 10.715 9.09 26.786 10.065 31.088 1.136 4.464.568 5.925-4.059 9.902z"/></g><g><g><path fill="#f8a17a" d="M276.379 131.5c-1.461 0-2.84.243-4.22.486-.731.163-1.462.163-2.273.487a9.96 9.96 0 0 0-2.11.974c-1.462.73-2.76 1.624-4.303 2.11-.243.082-.568.163-.65.407-.08.243-.08.487.082.649.162.162.325.325.568.487 1.055.568 2.354.65 3.572.406 1.217-.163 2.435-.487 3.652-.568.244 0 .487 0 .73.162.894.568-.81 2.76-1.217 3.247-.811.974-2.029 1.623-3.084 2.272-.65.406-1.299.73-2.03 1.056-.649.324-1.298.568-1.947.974-.406.324-.893.811-.974 1.38 0 .162 0 .405.162.568.162.08.325.162.487.162.325 0 .65.081.974 0 .243 0 .487 0 .73.081.244.162.406.487.569.73.324.406.811.65 1.298.812.244.081.487.244.73.325.244.162.488.406.731.487.974.568 2.03.568 3.166.406 4.87-.73 8.766-3.815 10.877-6.494 1.542-1.867 3.003-4.464 5.357-6.006-.163-2.922-2.922-6.656-4.87-7.63-.65.568-1.056.812-1.786 1.136-1.461.569-2.598.893-4.221.893z"/></g></g></g></g><g><g><path fill="#37474f" d="M305.437 34.34c-1.623-6.33-14.448-14.691-26.055-8.766-12.337 6.25-12.094 20.536-11.77 27.03.082 2.272.244 3.652-.649 6.818h1.543c1.623-.082 9.578 5.519 9.578 5.519s-6.088-5.114-2.679-16.315c2.192-7.224 4.708-13.798 14.773-16.64 10.065-2.84 15.26 2.354 15.26 2.354z"/></g><g><g><path fill="#455a64" d="M284.82 70.623c2.354-.487 5.195-.974 6.494-.974 2.354 0 5.925-.974 9.821-7.143 5.763-9.253 9.66-26.055 1.786-30.52-2.678-1.542-5.844-2.191-9.01-2.191-2.678 0-5.438.974-7.71 2.273-2.436 1.38-4.465 3.49-6.17 5.682-2.353 3.084-4.301 6.899-5.519 10.551-.974 3.085-1.623 5.763-1.136 8.929.162.893.65 2.679 1.785 4.22 2.841 4.06 6.088 5.764 9.66 9.173-1.3-2.435-3.328-4.302-5.276-6.25-1.948-1.948-3.653-4.22-4.302-6.818-.569-2.435-.082-4.952.568-7.305 1.623-5.52 4.383-10.715 8.928-14.448 2.354-1.867 5.926-3.41 8.929-3.572 2.597-.162 6.737.65 8.847 2.273 2.517 1.867 3.004 4.464 3.004 7.305 0 5.438-2.03 10.877-4.059 15.909-1.055 2.679-2.435 5.357-4.545 7.386-4.708 4.546-10.633 3.896-12.094 5.52z"/></g></g><g><path fill="#0097a4" d="M282.791 79.633c0-1.38-.487-2.679-.324-4.059.162-1.38.649-2.678 1.542-3.734.081-.162.243-.324.243-.487 0-.162-.162-.405-.324-.324-.081 0-.081.08-.163.08-.405.326-.893.731-1.298 1.056-.244.244-.406.487-.569.73a4.097 4.097 0 0 0-.73 1.867c-.162 1.3.162 2.679.162 4.059 0 1.867-.08 3.734-.974 5.438-.65 1.137-1.38 2.273-1.298 3.653 0 .243.324.73.568.406.487-.65.893-1.461 1.298-2.192.406-.65.812-1.38 1.137-2.03.487-1.379.73-3.002.73-4.463z"/></g><g><path fill="#0097a4" d="M286.038 87.1c-.162-.73-.243-1.461-.162-2.191.162-.65.243-1.38.406-2.03.243-1.38.73-2.76.892-4.14.163-1.38 0-2.76-.568-4.058-.487-.974-1.136-2.029-1.217-3.165 0-.244-.244-.487-.487-.244-.812.893 0 2.354.405 3.247.65 1.38.812 2.76.488 4.22-.325 1.462-.812 2.842-.975 4.303-.162 1.38.244 3.003.975 4.14.08.243.243 0 .243-.082z"/></g></g><g><g><path fill="#f8a17a" d="M194.155 58.042s5.114-2.922 5.52-3.166c.73.325 1.46.568 2.191.893.568.243 1.137.487 1.461 1.055.244.406.325.893.406 1.38.162.812.406 1.705.65 2.516.243.73.811 1.948 1.785 1.624.406-.082.65-.487.974-.73.893-.894 1.948-1.624 2.841-2.517 2.516-2.679.812-6.98-.487-9.821l2.273-1.3s.65-2.759-.163-3.652c-.811-.893-2.353 2.192-3.084 3.085-.487-.244-.974-.406-1.867-.73-.811-.326-1.542-.57-2.354-.731-.811-.163-1.704-.244-2.354.162-.649.406-.974 1.217-1.542 1.704-.73.569-1.785.569-2.354 1.218-.405.406-.405 1.055-.974 1.542-.405.406-1.46 1.137-1.785 1.624-.812 1.055-1.056 5.357-1.137 5.844z"/></g><g><path fill="#f0997a" d="M209.415 49.194l.406-.243c0-.325-.081-.812-.163-1.38-.162-.568-.405-.893-.649-1.055-.162.324-.406.568-.568.73.568.406.65 1.137.974 1.948z"/></g></g></g></g></g><g><g><g><g><path fill="#0097a4" d="M145.21 199.275l108.28-62.5 4.301 2.516c1.137.65 2.03 2.273 2.03 3.49v79.87c0 1.3-.893 2.841-2.03 3.49l-104.22 60.147c-1.136.649-2.922.649-4.058 0l-2.273-1.299c-1.136-.65-2.03-2.273-2.03-3.49z"/></g><g opacity=".3"><path d="M145.21 199.275l108.28-62.5 4.301 2.516c1.137.65 2.03 2.273 2.03 3.49v79.87c0 1.3-.893 2.841-2.03 3.49l-104.22 60.147c-1.136.649-2.922.649-4.058 0l-2.273-1.299c-1.136-.65-2.03-2.273-2.03-3.49z"/></g><g><path fill="#0097a4" d="M252.84 129.714l.406-.244-1.705-.974-.487-.244-47.646-17.694c-1.298-.487-2.922.08-3.652 1.136l-53.165 77.922c-.731 1.136-1.38 3.084-1.38 4.464v5.195l1.623.974 106.574-63.474v-5.195c.082-.649-.162-1.298-.568-1.866z"/></g><g opacity=".1"><path d="M202.029 112.181a1.897 1.897 0 0 0-.569.568l-53.246 77.841c-.406.568-.73 1.38-.974 2.192l-1.624-.975c.082-.405.244-.811.406-1.217l.244-.487v-.081c.081-.163.162-.325.324-.487l53.328-77.84c.081-.082.163-.244.244-.326a1.12 1.12 0 0 1 .324-.243z"/></g><g opacity=".35"><path fill="#fff" d="M253.246 129.47l-.487-.243-47.646-17.695c-.974-.406-2.273-.081-3.084.568l-1.624-.974c.812-.65 2.11-.974 3.085-.568l47.646 17.695c.162.08.324.162.405.243z"/></g><g><g><path fill="#0097a4" d="M146.266 190.103c.081-.162.162-.325.325-.487"/></g><g><path fill="#0097a4" d="M200.162 111.45a1.12 1.12 0 0 1 .324-.243"/></g><g><path fill="#0097a4" d="M145.535 191.889c.163-.406.244-.812.406-1.218"/></g><g><path fill="#0097a4" d="M146.022 190.671l.244-.487"/></g><g opacity=".2"/><g opacity=".2"/><g opacity=".2"/><g opacity=".2"><path d="M146.266 190.184s0-.081 0 0"/></g><g opacity=".2"><path d="M199.837 111.775c.081-.08.162-.243.244-.324"/></g></g><g><path fill="#0097a4" d="M201.542 112.75l-53.328 77.84c-.73 1.136-1.38 3.084-1.38 4.464v5.195l108.279-62.5v-5.195c0-1.38-1.055-2.84-2.273-3.246l-47.646-17.695c-1.299-.487-2.922 0-3.652 1.136z"/></g><g opacity=".05"><path d="M255.113 132.554c0-.649-.244-1.298-.568-1.785L147.24 192.863c-.244.73-.406 1.542-.406 2.191v5.195l108.279-62.5z"/></g></g><g><g><path fill="#f0f0f0" d="M250.486 105.038c0-.568-.162-.974-.487-1.136-.324-.162-3.003-1.705-3.328-1.948-.324-.162-.73-.162-1.217.162l-88.799 51.299c-.974.568-1.785 1.948-1.785 3.084v111.932c0 .568.162.974.487 1.136.324.162 3.003 1.705 3.328 1.867.324.162.73.162 1.217-.163l88.799-51.298c.974-.568 1.785-1.948 1.785-3.003z"/></g><g><g><path fill="#fafafa" d="M159.172 271.11c-.487 0-.569-.57-.569-.813V158.366c0-.974.73-2.192 1.543-2.679l88.798-51.298c.244-.081.406-.162.568-.162.487 0 .568.568.568.811V216.97c0 .974-.73 2.191-1.542 2.678l-88.798 51.299c-.244.081-.406.162-.568.162z"/></g><g><path fill="#e0e0e0" d="M249.512 103.74c.568 0 .974.487.974 1.217V216.89c0 1.136-.811 2.516-1.785 3.084l-88.799 51.299c-.325.162-.568.243-.812.243-.568 0-.974-.406-.974-1.218V158.366c0-1.136.812-2.516 1.786-3.084l88.799-51.299c.324-.162.568-.243.811-.243zm-.406.974l-88.798 51.298c-.73.406-1.38 1.542-1.38 2.354v111.931s0 .406.162.406c.082 0 .163-.08.406-.162l88.799-51.299c.73-.405 1.38-1.542 1.38-2.353V104.957s0-.406-.163-.406z"/></g></g><g><path fill="#e0e0e0" d="M158.198 270.216c0 .487.162.893.405 1.055-.568-.324-2.922-1.704-3.165-1.866-.325-.163-.487-.569-.487-1.137v-111.85c0-.568.162-1.136.487-1.705l3.328 1.867c-.325.569-.487 1.218-.487 1.705v111.931z"/></g></g><g><g><path fill="#0097a4" d="M257.06 223.707c0 .08-.08.08-.08.162l-45.13-14.286c-3.571-1.542-7.711-.324-9.74 3.004l-48.214 71.671-1.786 1.056c-.568.324-1.055.324-1.38.162l49.594-73.863c2.03-3.328 6.25-4.546 9.74-3.004z"/></g><g opacity=".4"><path fill="#fff" d="M197.645 219.567l.082-.081-43.831 64.772-1.786 1.056c-.568.324-1.055.324-1.38.162l45.211-66.883z"/></g><g opacity=".4"><path fill="#fff" d="M257.06 223.707c0 .08-.08.08-.08.162l-45.13-14.286c-3.571-1.542-7.711-.324-9.74 3.004l-1.786-1.056c2.03-3.246 6.169-4.545 9.74-3.003z"/></g><g><path fill="#0097a4" d="M259.82 142.213c-.08-.568-.405-.73-.811-.487-.162.082-.325.325-.487.569l-.244.324-44.48 67.695-6.656 9.253c-.73 1.055-2.354 1.705-3.652 1.38l-5.763-1.38-43.831-16.152c-.325-.082-.65-.082-.893 0-.081 0-.244.08-.325.08l1.624-.973 41.964 15.422 5.52 1.948c1.298.324 2.921-.325 3.652-1.38l6.656-9.253 44.723-68.02c.163-.243.325-.324.487-.487l-3.896-2.272 1.624-.893 2.678 1.542c1.055.65 1.867 1.948 2.11 3.084z"/></g><g opacity=".4"><path fill="#fff" d="M213.717 210.314l-6.656 9.253c-.73 1.055-2.354 1.705-3.653 1.38l-5.762-1.38.08-.081.244-.406 3.734.893c1.299.325 2.922-.325 3.653-1.38l6.574-9.172z"/></g><g opacity=".1"><path d="M257.791 139.21l-2.678-1.542-1.624.893 3.897 2.273c-.163.162-.406.243-.487.487l-44.724 68.019-.082.081 1.624.893 44.561-67.695.244-.324a3.53 3.53 0 0 1 .487-.568c.406-.244.73-.082.812.487-.244-1.137-1.056-2.436-2.03-3.004z"/></g><g><path fill="#0097a4" d="M154.707 204.794l-9.578-5.519v82.224c0 1.298.893 2.84 2.03 3.49l2.272 1.299c1.137.649 2.922.649 4.059 0l1.136-.65v-80.844z"/></g><g opacity=".2"><path d="M154.707 204.794l-9.578-5.519v82.224c0 1.298.893 2.84 2.03 3.49l2.272 1.299c1.137.649 2.922.649 4.059 0l1.136-.65v-80.844z"/></g><g><path fill="#0097a4" d="M259.82 142.782v79.87c0 .649-.243 1.38-.649 2.029-.324.568-.73 1.055-1.217 1.38h-.081c-.082 0-.082.08-.163.08l-104.22 60.147c-.568.324-1.055.324-1.38.162-.325-.162-.568-.487-.65-.974V205.281c0-1.298 1.056-2.11 2.273-1.785l43.831 16.152 5.763 1.38c1.299.325 2.922-.325 3.653-1.38l6.656-9.253 44.48-67.694.244-.325c.811-1.137 1.46-.893 1.46.406z"/></g><g><path fill="#0097a4" d="M257.791 226.142c.082 0 .082-.081.163-.081l.08-.082c.488-.324.894-.811 1.218-1.298.406-.65.65-1.38.65-2.03l-46.104-12.337 30.844 23.458z"/></g><g opacity=".2"><path d="M257.791 226.142c.082 0 .082-.081.163-.081l.08-.082c.488-.324.894-.811 1.218-1.298.406-.65.65-1.38.65-2.03l-46.104-12.337 30.844 23.458z"/></g><g><path fill="#0097a4" d="M151.542 285.151c0 .65.243 1.137.65 1.38.324.163.81.163 1.379-.162l35.876-20.698 8.198-46.023-46.103 64.205z"/></g><g opacity=".2"><path d="M202.11 212.505L152.19 286.45c-.406-.243-.65-.65-.65-1.299v-1.298l48.702-72.24z"/></g><g><path fill="#0097a4" d="M259.171 224.68c-.324.569-.73.975-1.217 1.3l-.081.08-104.302 60.228c-.568.324-1.055.324-1.38.162l49.919-73.945c2.029-3.327 6.25-4.545 9.821-3.003z"/></g><g opacity=".15"><path d="M145.535 191.889l1.624.974c-.244.811-.406 1.542-.406 2.191v5.195l-1.624-.974v-5.195c.082-.65.163-1.46.406-2.191z"/></g><g><path fill="#0097a4" d="M154.302 202.603l-1.705.893-1.623-.893-4.14-2.435 1.623-.893z"/></g><g opacity=".1"><path d="M154.383 202.603l-5.926-3.328-1.623.974 4.14 2.354 1.704.974c.081-.081.244-.081.325-.081.243-.081.568-.081.893 0l3.328 1.217 38.23 14.042.568-.892z"/></g></g><g><g><g><path fill="#455a64" d="M202.272 148.788c6.007-3.49 10.796-.65 10.796 6.25s-4.87 15.26-10.796 18.75c-6.006 3.49-10.795.65-10.795-6.25s4.87-15.26 10.795-18.75z"/></g><g><path fill="#95c81f" d="M202.11 152.684c2.029-1.136 3.652-.243 3.652 2.11 0 2.273-1.623 5.114-3.652 6.25-2.03 1.137-3.653.244-3.653-2.11s1.624-5.113 3.653-6.25z"/></g><g><path fill="#95c81f" d="M208.766 163.155c-1.543 3.49-4.059 6.656-6.98 8.36-2.517 1.461-4.79 1.461-6.332.325.568-3.41 3.003-7.062 5.763-8.685l2.03-1.218c2.515-1.38 4.707-.811 5.519 1.218z"/></g></g><g><path fill="#455a64" d="M186.444 191.483l33.766-19.48c1.3-.731 2.354-.244 2.354 1.217 0 1.46-1.055 3.247-2.354 3.977l-33.766 19.48c-1.298.731-2.354.244-2.354-1.217s1.056-3.166 2.354-3.977z"/></g><g><g><path fill="#455a64" d="M186.444 201.872l33.766-19.48c1.3-.73 2.354-.244 2.354 1.217s-1.055 3.247-2.354 3.978l-33.766 19.48c-1.298.73-2.354.244-2.354-1.217s1.056-3.247 2.354-3.978z"/></g><g><g><path fill="#95c81f" d="M188.96 202.684l.569-.812.08-.08s.082 0 .082.08l.081.406v.163c0 .08-.081.08-.081.162l-.081.081-.65.487.487.325v.162c0 .081 0 .081-.08.162l-.325.487c0 .082-.082.082-.082.082h-.08v-.082l-.244-.649-.244.974v.081c0 .082-.08.082-.08.163 0 0-.082.08-.082 0l-.325-.081-.08-.082v-.162-.081l.486-.893-.65.325h-.08s-.082 0-.082-.082v-.162l.082-.568c0-.081 0-.081.08-.162 0-.082.082-.082.082-.082l.568.082-.162-.812v-.081c0-.081 0-.081.08-.163 0-.08.082-.08.082-.08l.406-.244h.081l.081.08v.082z"/></g><g><path fill="#95c81f" d="M193.1 200.249l.568-.812.081-.08s.082 0 .082.08l.08.406v.162c0 .082-.08.082-.08.163l-.082.081-.649.487.487.325v.162c0 .081 0 .081-.081.162l-.325.487c0 .082-.08.082-.08.082h-.082v-.082l-.244-.649-.243.974v.081c0 .081-.081.081-.081.163 0 0-.081.08-.081 0l-.325-.082-.081-.08v-.163-.081l.487-.893-.65.325h-.08s-.082 0-.082-.082v-.162l.081-.568c0-.081 0-.081.081-.162 0-.082.082-.082.082-.082l.568.082-.163-.812v-.081c0-.082 0-.082.082-.163 0-.08.08-.08.08-.08l.407-.244h.08l.082.08v.082z"/></g><g><path fill="#95c81f" d="M197.24 197.814l.568-.812.081-.08s.081 0 .081.08l.081.406v.162c0 .082-.08.082-.08.163l-.082.081-.65.487.488.325v.162c0 .081 0 .081-.081.162l-.325.487c0 .082-.081.082-.081.082h-.081v-.082l-.244-.649-.243.974v.081c0 .081-.082.081-.082.163 0 0-.08.08-.08 0l-.326-.082-.08-.08v-.163-.081l.486-.893-.649.325h-.081s-.081 0-.081-.082v-.162l.08-.568c0-.081 0-.081.082-.163 0-.08.081-.08.081-.08l.568.08-.162-.811v-.081c0-.082 0-.082.081-.163 0-.08.081-.08.081-.08l.406-.244h.081l.082.08v.082z"/></g><g><path fill="#95c81f" d="M201.46 195.379l.569-.812.08-.081s.082 0 .082.081l.081.406v.162c0 .082-.081.082-.081.163l-.081.08-.65.488.488.325v.162c0 .081 0 .081-.082.162l-.324.487c0 .081-.082.081-.082.081h-.08v-.08l-.244-.65-.244.974v.081c0 .081-.08.081-.08.163 0 0-.082.08-.082 0l-.325-.082-.08-.08v-.163-.081l.486-.893-.65.324h-.08s-.082 0-.082-.08v-.163l.082-.568c0-.081 0-.081.08-.163 0-.08.082-.08.082-.08l.568.08-.162-.811v-.081c0-.082 0-.082.081-.163 0-.081.081-.081.081-.081l.406-.243h.081l.081.08v.082z"/></g><g><path fill="#95c81f" d="M205.6 193.025l.568-.812.081-.08s.082 0 .082.08l.08.406v.162c0 .082-.08.082-.08.163l-.082.081-.649.487.487.325v.162c0 .081 0 .081-.081.162l-.325.487c0 .082-.08.082-.08.082h-.082v-.082l-.244-.649-.243.974v.081c0 .081-.081.081-.081.163 0 0-.081.08-.081 0l-.325-.082-.081-.08v-.163-.081l.487-.893-.65.325h-.08s-.082 0-.082-.082V194l.081-.568c0-.081 0-.081.081-.162 0-.082.082-.082.082-.082l.568.082-.163-.812v-.081c0-.082 0-.082.082-.163 0-.08.08-.08.08-.08l.407-.244h.08l.082.08v.082z"/></g><g><path fill="#95c81f" d="M209.82 190.59l.569-.812.081-.08s.081 0 .081.08l.082.406v.162c0 .082-.082.082-.082.163l-.08.081-.65.487.487.325v.162c0 .081 0 .081-.081.162l-.325.487c0 .082-.081.082-.081.082h-.081v-.082l-.244-.649-.243.974v.081c0 .081-.082.081-.082.163 0 0-.08.08-.08 0l-.325-.082-.082-.08v-.163-.081l.487-.893-.649.325h-.081s-.081 0-.081-.082v-.162l.081-.568c0-.081 0-.081.081-.163 0-.08.081-.08.081-.08l.568.08-.162-.811v-.081c0-.082 0-.082.081-.163 0-.08.081-.08.081-.08l.406-.244h.082l.08.08v.082z"/></g><g><path fill="#95c81f" d="M213.96 188.155l.569-.812.08-.081s.082 0 .082.081l.081.406v.162c0 .082-.081.082-.081.163l-.081.08-.65.488.487.325v.162c0 .081 0 .081-.08.162l-.325.487c0 .081-.082.081-.082.081h-.08v-.08l-.244-.65-.244.974v.081c0 .081-.08.081-.08.162 0 0-.082.082-.082 0l-.325-.08-.08-.082v-.162-.081l.486-.893-.65.324h-.08s-.082 0-.082-.08v-.163l.082-.568c0-.081 0-.081.08-.163 0-.08.082-.08.082-.08l.568.08-.162-.811v-.081c0-.082 0-.082.08-.163 0-.081.082-.081.082-.081l.406-.243h.081l.081.08v.082z"/></g><g><path fill="#95c81f" d="M218.1 185.801l.568-.812.081-.08s.082 0 .082.08l.08.406v.162c0 .082-.08.082-.08.163l-.082.081-.649.487.487.325v.162c0 .081 0 .081-.081.162l-.325.487c0 .082-.081.082-.081.082h-.081v-.082l-.244-.649-.243.974v.081c0 .081-.081.081-.081.163 0 0-.082.08-.082 0l-.324-.082-.081-.08v-.163-.081l.487-.893-.65.325h-.08s-.082 0-.082-.082v-.162l.081-.568c0-.081 0-.081.081-.162 0-.082.082-.082.082-.082l.568.082-.163-.812v-.081c0-.082 0-.082.082-.163 0-.08.08-.08.08-.08l.407-.244h.08l.082.08v.082z"/></g></g></g></g></g></g><g><g><g><g><g><path fill="#e0e0e0" d="M202.272 137.1c1.299-.73 2.273-.162 2.273 1.299 0 1.46-1.055 3.246-2.273 3.977-1.299.73-2.273.162-2.273-1.299 0-1.542 1.056-3.247 2.273-3.977z"/></g><g opacity=".1"><path d="M202.272 137.1c1.299-.73 2.273-.162 2.273 1.299 0 1.46-1.055 3.246-2.273 3.977-1.299.73-2.273.162-2.273-1.299 0-1.542 1.056-3.247 2.273-3.977z"/></g></g><g><g><path fill="#0097a4" d="M208.603 135.395c0 1.786-.65 3.166-1.785 3.815-.487.325-1.056.406-1.624.406-.243 0-.487 0-.73-.081l-.244-.081c-.487-.163-1.055-.325-1.542-.65-.487-.243-.893-.568-1.299-.892.325-.325.65-.65.974-.812.081 0 .081-.081.163-.081.324.243.568.406.892.568.406.243.893.406 1.3.487h.08a1.824 1.824 0 0 0 1.461-.162c.73-.406 1.056-1.3 1.056-2.598 0-2.922-2.03-6.493-4.546-7.954l-.081-.082c-.244-.162-.325-.324-.325-.568v-5.276h1.461v4.87c2.598 1.867 4.79 5.763 4.79 9.091z"/></g><g opacity=".4"><path d="M208.603 135.395c0 1.786-.65 3.166-1.785 3.815-.487.325-1.056.406-1.624.406-.243 0-.487 0-.73-.081l-.244-.081c-.487-.163-1.055-.325-1.542-.65-.487-.243-.893-.568-1.299-.892.325-.325.65-.65.974-.812.081 0 .081-.081.163-.081.324.243.568.406.892.568.406.243.893.406 1.3.487h.08a1.824 1.824 0 0 0 1.461-.162c.73-.406 1.056-1.3 1.056-2.598 0-2.922-2.03-6.493-4.546-7.954l-.081-.082c-.244-.162-.325-.324-.325-.568v-5.276h1.461v4.87c2.598 1.867 4.79 5.763 4.79 9.091z"/></g><g opacity=".2"><path d="M202.19 123.545c.244.08.488.162.731.162.244 0 .487-.081.731-.162v-2.03h-1.461z"/></g></g><g><g><path fill="#0097a4" d="M203.003 117.944c.162-.081.243-.081.405-.081.082 0 .163 0 .163.081.162.081.243.244.243.568 0 .406-.243.974-.568 1.299h-.325c-.324 0-.568.081-.811.243 0-.08-.081-.162-.081-.243 0-.73.487-1.542.974-1.867zm.649 1.948c.325-.406.568-.974.568-1.46 0-.407-.162-.731-.406-.894-.243-.162-.649-.162-.974.081-.649.406-1.217 1.3-1.217 2.03 0 .243 0 .405.081.568-.244.243-.406.65-.406 1.055 0 .893.73 1.623 1.623 1.623s1.624-.73 1.624-1.623c0-.568-.406-1.136-.893-1.38z"/></g><g opacity=".45"><path d="M203.003 117.944c.162-.081.243-.081.405-.081.082 0 .163 0 .163.081.162.081.243.244.243.568 0 .406-.243.974-.568 1.299h-.325c-.324 0-.568.081-.811.243 0-.08-.081-.162-.081-.243 0-.73.487-1.542.974-1.867zm.649 1.948c.325-.406.568-.974.568-1.46 0-.407-.162-.731-.406-.894-.243-.162-.649-.162-.974.081-.649.406-1.217 1.3-1.217 2.03 0 .243 0 .405.081.568-.244.243-.406.65-.406 1.055 0 .893.73 1.623 1.623 1.623s1.624-.73 1.624-1.623c0-.568-.406-1.136-.893-1.38z"/></g></g><g><g><path fill="#263238" d="M202.597 2.928v115.097c0 .244.162.406.406.406.243 0 .406-.162.406-.406V3.01c-.244 0-.488-.08-.812-.08z"/></g></g></g><g><g><g><g><g><path fill="#e0e0e0" d="M53.653 62.912c-.569-3.572-1.867-3.085-1.624-4.708.081-.812.812-1.299 1.624-1.542 1.217.243 2.272.974 2.353 2.435.082 2.191-.974 5.52-1.948 7.467-.162-.974-.243-2.272-.405-3.652zm-7.468 3.652c-.487-1.298.974-1.623 2.354-3.165.893-.974 1.136-1.867 1.299-2.598 1.055 2.354 1.866 7.63.568 8.36-.081 0-.081.082-.163.082-1.704-.406-3.733-1.786-4.058-2.679zm2.273-16.801c-.65 3.084.243 4.058-.081 5.032-1.624-1.218-3.572-4.383-2.923-6.169.65-1.704 2.436-3.084 3.897-3.734.568.65-.325 2.354-.893 4.87zm6.169 4.707h-.487c-.325 0-1.624.081-1.786.081a2.03 2.03 0 0 0-1.055.325c-.487-1.867.162-6.25 1.136-7.954 1.623 1.704 3.571 6.25 3.49 7.548v.325c-.406-.162-.811-.325-1.298-.325zm-9.984 8.198c-.893-2.029-1.218-6.737-.974-9.172.324.568.65 1.218 1.055 1.786 1.705 2.435 2.516.73 2.84 2.354.326 1.542-1.217 4.302-2.759 5.357 0-.081-.081-.162-.162-.325zM56.088 46.84c-1.786-2.76-4.059-4.058-6.17-3.896-.405 0-.973 0-1.541.082-.163 0-.325 0-.487.08h-.082c-.243 0-.405.082-.649.163-.081 0-.081 0-.162.081-.163.081-.406.163-.568.244-.082 0-.163.08-.163.08l-.487.244c-.081.082-.162.082-.243.163-.163.08-.244.162-.406.324-.081.082-.244.163-.325.244l-.325.325c-.08.08-.243.243-.324.405-.081.082-.163.244-.325.325-.162.162-.243.325-.406.568a1.12 1.12 0 0 0-.243.325c-.163.325-.406.65-.568.974-2.923 5.682-2.517 14.691.974 20.13.243.324.405.65.649.974.162.162.243.324.406.487.08.081.162.243.324.324.082.082.244.163.325.325.162.162.325.244.406.406l.162.162c.163.163.406.325.568.406h.082c1.055.65 2.191.893 3.246.812.569 0 1.056 0 1.705-.081 2.03-.163 4.058-1.624 5.52-4.383 3.003-5.926 2.597-14.935-.893-20.293z"/></g><g opacity=".2"><path d="M53.653 62.912c-.569-3.572-1.867-3.085-1.624-4.708.081-.812.812-1.299 1.624-1.542 1.217.243 2.272.974 2.353 2.435.082 2.191-.974 5.52-1.948 7.467-.162-.974-.243-2.272-.405-3.652zm-7.468 3.652c-.487-1.298.974-1.623 2.354-3.165.893-.974 1.136-1.867 1.299-2.598 1.055 2.354 1.866 7.63.568 8.36-.081 0-.081.082-.163.082-1.704-.406-3.733-1.786-4.058-2.679zm2.273-16.801c-.65 3.084.243 4.058-.081 5.032-1.624-1.218-3.572-4.383-2.923-6.169.65-1.704 2.436-3.084 3.897-3.734.568.65-.325 2.354-.893 4.87zm6.169 4.707h-.487c-.325 0-1.624.081-1.786.081a2.03 2.03 0 0 0-1.055.325c-.487-1.867.162-6.25 1.136-7.954 1.623 1.704 3.571 6.25 3.49 7.548v.325c-.406-.162-.811-.325-1.298-.325zm-9.984 8.198c-.893-2.029-1.218-6.737-.974-9.172.324.568.65 1.218 1.055 1.786 1.705 2.435 2.516.73 2.84 2.354.326 1.542-1.217 4.302-2.759 5.357 0-.081-.081-.162-.162-.325zM56.088 46.84c-1.786-2.76-4.059-4.058-6.17-3.896-.405 0-.973 0-1.541.082-.163 0-.325 0-.487.08h-.082c-.243 0-.405.082-.649.163-.081 0-.081 0-.162.081-.163.081-.406.163-.568.244-.082 0-.163.08-.163.08l-.487.244c-.081.082-.162.082-.243.163-.163.08-.244.162-.406.324-.081.082-.244.163-.325.244l-.325.325c-.08.08-.243.243-.324.405-.081.082-.163.244-.325.325-.162.162-.243.325-.406.568a1.12 1.12 0 0 0-.243.325c-.163.325-.406.65-.568.974-2.923 5.682-2.517 14.691.974 20.13.243.324.405.65.649.974.162.162.243.324.406.487.08.081.162.243.324.324.082.082.244.163.325.325.162.162.325.244.406.406l.162.162c.163.163.406.325.568.406h.082c1.055.65 2.191.893 3.246.812.569 0 1.056 0 1.705-.081 2.03-.163 4.058-1.624 5.52-4.383 3.003-5.926 2.597-14.935-.893-20.293z"/></g><g><path fill="#e0e0e0" d="M51.867 62.993c-.568-3.571-1.867-3.084-1.624-4.708.325-2.354 5.601-2.354 5.682.812.081 3.084-2.11 8.685-3.003 8.928-.812.325-.568-2.191-1.055-5.032zm-1.38 6.169c-1.705.974-5.52-1.218-6.007-2.598-.487-1.298.974-1.623 2.354-3.165 1.786-1.948 1.056-3.815 2.03-3.815 1.38 0 3.246 8.604 1.623 9.578zm-7.63-6.413c-1.136-2.516-1.299-9.415-.73-10.551.568-1.137 1.217 1.217 2.597 3.084 1.705 2.435 2.516.73 2.84 2.354.569 2.354-3.57 7.63-4.707 5.113zM49.27 44.73c.812.65-.162 2.354-.73 5.033-.73 3.409.487 4.301-.244 5.275-1.136 1.462-5.52-3.896-4.545-6.412.893-2.516 4.627-4.545 5.52-3.896zm2.517 1.623c1.785.974 4.22 6.575 4.22 8.117-.08 1.543-1.38.244-3.084.081-2.11-.324-2.192 1.867-3.003.893-1.299-1.46.08-10.065 1.867-9.09zm2.516.569c-3.49-5.439-8.685-5.195-11.607.487-2.922 5.681-2.516 14.691.974 20.13 3.49 5.438 8.685 5.194 11.607-.569 2.922-5.682 2.516-14.691-.974-20.048z"/></g></g><g><path fill="#455a64" d="M47.321 60.396c1.056 1.623 2.679 1.542 3.572-.163.893-1.785.811-4.464-.325-6.169-1.055-1.623-2.678-1.542-3.571.163-.893 1.704-.73 4.464.324 6.169z"/></g></g><g><g><path fill="#263238" d="M47.24 47.246L24.675 63.967c-.487.406-.811 1.136-.649 2.11.243 1.948 1.867 4.221 3.734 5.033.893.406 1.704.325 2.191 0l22.484-16.72z"/></g><g><g><path fill="#37474f" d="M46.59 49.357c.244 1.948 1.868 4.22 3.735 5.032 1.785.812 3.084-.162 2.922-2.11-.244-1.948-1.867-4.221-3.734-5.033-1.867-.811-3.166.163-2.922 2.11z"/></g></g></g></g><g><g><g><path fill="#263238" d="M200.162 7.717c-3.734 4.546-11.445 11.12-23.945 10.796-15.99-.406-22.89-8.767-24.675-11.364-1.218 3.003-6.25 13.15-19.887 17.451-13.149 4.14-24.837-1.948-27.84-3.733.08 3.49-.812 16.64-16.883 23.133-13.474 5.519-23.945 0-24.107-.082-.244-.08-.325-.405-.163-.568.081-.243.406-.324.568-.162.082.081 10.228 5.357 23.377.081 17.938-7.305 16.315-22.97 16.315-23.133 0-.162.081-.325.243-.406a.517.517 0 0 1 .487 0c.163.081 12.987 8.766 27.76 4.14 15.584-4.952 19.562-17.614 19.643-17.776.08-.163.162-.325.406-.325.162 0 .324.081.405.244.082.08 6.088 11.2 24.432 11.688 18.344.406 25.893-14.286 25.974-14.367.081-.243.325-.325.568-.162.244.08.325.324.244.568-.65 1.136-2.922 3.977-2.922 3.977z"/></g></g><g><path fill="#0097a4" d="M48.945 48.87s10.227-7.549 10.47-7.793c3.41-2.678 32.793-25 73.702-34.253 43.506-9.821 71.996-4.87 71.834-3.652-.163 1.217-29.87-3.41-71.185 6.493-19.48 4.708-40.91 13.068-68.993 32.711-1.218.812-12.5 9.172-13.718 10.065 0 0-1.136.406-2.03-1.217-1.135-1.867-.08-2.354-.08-2.354z"/></g><g opacity=".2"><path d="M174.35 3.659c-23.863.487-66.071 5.763-112.256 38.068-3.328 2.354-5.925 4.545-10.47 7.549-1.543.974-2.842.73-3.085.405-.081.406.081.893.487 1.705.974 1.623 2.03 1.217 2.03 1.217 1.217-.892 12.5-9.253 13.717-10.064 28.084-19.643 49.512-28.004 68.993-32.711 15.422-3.815 29.302-5.52 40.584-6.17z"/></g></g></g></g></g><g><g><g><g><g><g><path fill="#263238" d="M350.161 12.263L326.216 26.71c-.487.324-.892.974-.892 1.542v31.25c0 .568.405 1.217.892 1.542l3.166 1.786c.487.243 1.299.243 1.786 0l24.026-14.448c.487-.325.893-.974.893-1.543V15.59c0-.568-.406-1.217-.893-1.542l-3.166-1.785c-.568-.325-1.38-.325-1.867 0z"/></g><g><path fill="#455a64" d="M330.356 62.344v-31.25c0-.568.406-1.299.893-1.542l23.945-14.53c.487-.324.893-.08.893.487v31.25c0 .568-.406 1.299-.893 1.542L331.249 62.75c-.487.406-.893.163-.893-.405z"/></g><g><path fill="#37474f" d="M356.087 15.428c-.082-.487-.406-.65-.893-.324l-23.945 14.448a2.47 2.47 0 0 0-.65.649l-4.95-2.841c.162-.244.405-.487.649-.65l23.944-14.447c.487-.325 1.3-.325 1.786 0l3.166 1.785c.406.244.811.812.893 1.38z"/></g></g><g><g><path fill="#263238" d="M325.324 39.454l-7.143 7.305c-.406.406-.244.974.162 1.218.163.081 4.951 2.84 4.951 2.84l7.062-8.522z"/></g><g><path fill="#455a64" d="M330.356 42.376l-7.143 7.305c-.568.569-.08 1.461.65 1.299l6.493-.974c.65.081.65-7.63 0-7.63z"/></g></g></g></g><g><g><path fill="#fafafa" d="M336.2 51.63c.163-.163.325-.244.487-.244.487.081.974-.244 1.542-.73l9.903-10.39c.325-.406.568-.974.65-1.542.08-.812.568-1.461 1.055-1.543.243-.08.487.244.487.65 0 .324.162.487.405.487.244 0 .406.08.487.487.163.65-.162 1.542-.649 1.948-.162.162-.325.243-.487.243-.65 0-1.299.325-1.948.974l-9.334 9.822c-.406.406-.73 1.136-.812 1.785-.081.812-.568 1.461-1.055 1.543-.244.08-.487-.244-.487-.65 0-.324-.163-.568-.406-.487-.244 0-.406-.162-.487-.487-.162-.568.162-1.46.65-1.867z"/></g><g><path fill="#fafafa" d="M343.424 43.026c2.11-1.218 2.922-3.004 2.922-3.004 0-1.217.163-1.867.65-2.597s1.38-.568 1.785-2.192c.487-1.623-.568-1.623-.568-2.516s.568-1.704.568-4.464c0-2.841-1.785-4.708-5.357-2.598-3.571 2.03-5.357 6.007-5.357 8.848 0 2.84.568 2.84.568 3.815 0 .974-1.055 2.11-.568 3.165.487 1.056 1.299-.08 1.786.082.487.162.65.649.65 1.866 0 0 .73.893 2.921-.405z"/></g><g><path fill="#455a64" d="M341.152 35.152c-.731.325-1.38.974-1.624 1.786-.243.812-.162 2.191.65 2.273.568.08 1.785-.974 2.191-2.192.406-1.38-.162-2.354-1.217-1.867z"/></g><g><path fill="#455a64" d="M345.697 32.474c.73-.569 1.38-.569 1.623-.082.244.487.163 2.03-.649 3.004-.568.73-1.786 1.136-2.192.324-.487-.73.082-2.435 1.218-3.246z"/></g><g><path fill="#455a64" d="M343.424 39.373c.163.65.65.568.893.243.244-.324.162-.649 0-1.136-.243-.487-.812-1.217-.812-1.217s-.649 1.46-.811 2.191c-.244.73-.244 1.136 0 1.218.08 0 .568-.487.73-1.3z"/></g><g><path fill="#fafafa" d="M350.648 43.269c-.162 0-.324.162-.487.406-.487.568-.974.974-1.542.974l-9.903 1.055c-.324 0-.568-.243-.649-.812-.081-.649-.568-.811-1.055-.405-.244.243-.487.73-.487 1.217 0 .406-.162.73-.406.974-.243.244-.406.65-.487 1.055-.162.812.162 1.38.65 1.218.162 0 .324-.162.486-.325.65-.65 1.3-1.136 1.948-1.217l9.497-.974c.406-.082.73.324.812.892.081.65.568.812 1.055.325.244-.243.487-.73.487-1.217 0-.406.162-.73.406-.974.243-.244.406-.65.487-1.056-.081-.649-.325-1.217-.812-1.136z"/></g></g></g></g></g></g></svg>