<svg xmlns="http://www.w3.org/2000/svg" width="30" height="31" viewBox="0 0 30 31" fill="none"><path d="M23.3606 31.0006H22.6406V23.5006C22.6406 19.9486 20.2266 16.8966 16.7686 16.0766C16.6186 16.0406 16.5076 15.9136 16.4936 15.7606C16.4786 15.6066 16.5646 15.4606 16.7056 15.3976C18.2226 14.7226 19.2016 13.2166 19.2016 11.5616C19.2016 9.24562 17.3176 7.36063 15.0016 7.36063C12.6856 7.36063 10.8016 9.24462 10.8016 11.5616C10.8016 13.2176 11.7816 14.7236 13.2976 15.3976C13.4386 15.4606 13.5236 15.6066 13.5096 15.7606C13.4956 15.9136 13.3846 16.0416 13.2346 16.0766C9.77662 16.8966 7.36163 19.9486 7.36163 23.5006V31.0006H6.64062V23.5006C6.64062 19.9086 8.89762 16.7826 12.2266 15.6216C10.9006 14.7146 10.0806 13.2006 10.0806 11.5616C10.0806 9.59762 11.2376 7.89863 12.9046 7.10963C13.0936 6.62663 13.2006 6.04863 13.2006 5.50063C13.2006 3.17963 11.3556 1.36063 9.00062 1.36063C6.64562 1.36063 4.79962 3.17963 4.79962 5.50063C4.79962 7.16663 5.80263 8.73262 7.29563 9.39762C7.43763 9.46062 7.52263 9.60662 7.50763 9.76062C7.49363 9.91362 7.38263 10.0416 7.23263 10.0766C3.77463 10.8966 1.36062 13.9486 1.36062 17.5006V25.0006H0.640625V17.5006C0.640625 13.9066 2.89963 10.7796 6.23163 9.61963C4.91763 8.70563 4.08063 7.14463 4.08063 5.50063C4.08063 2.82063 6.28762 0.640625 9.00062 0.640625C11.7136 0.640625 13.9206 2.82063 13.9206 5.50063C13.9206 5.93763 13.8646 6.38162 13.7586 6.79962C14.5526 6.59262 15.4476 6.59262 16.2426 6.79962C16.1366 6.38062 16.0796 5.93763 16.0796 5.50063C16.0796 2.82063 18.2876 0.640625 21.0006 0.640625C23.7136 0.640625 25.9216 2.82063 25.9216 5.50063C25.9216 7.14463 25.0826 8.70563 23.7696 9.61963C27.1016 10.7796 29.3616 13.9066 29.3616 17.5006V25.0006H28.6406V17.5006C28.6406 13.9486 26.2266 10.8966 22.7686 10.0766C22.6186 10.0406 22.5076 9.91362 22.4936 9.76062C22.4786 9.60662 22.5646 9.46062 22.7056 9.39762C24.1976 8.73262 25.2006 7.16663 25.2006 5.50063C25.2006 3.17963 23.3556 1.36063 21.0006 1.36063C18.6456 1.36063 16.8006 3.17963 16.8006 5.50063C16.8006 6.04763 16.9066 6.62563 17.0966 7.10963C18.7646 7.89863 19.9216 9.59662 19.9216 11.5616C19.9216 13.2016 19.1016 14.7156 17.7756 15.6226C21.1046 16.7836 23.3616 19.9096 23.3616 23.5016L23.3606 31.0006ZM17.9266 29.3606C17.8526 29.3606 17.7786 29.3376 17.7156 29.2916L15.0006 27.3236L12.2866 29.2916C12.1606 29.3836 11.9896 29.3836 11.8636 29.2916C11.7376 29.1996 11.6846 29.0376 11.7336 28.8896L12.7706 25.7036L10.0566 23.7306C9.93062 23.6386 9.87762 23.4766 9.92562 23.3286C9.97362 23.1806 10.1126 23.0796 10.2676 23.0796H13.6226L14.6596 19.8896C14.7066 19.7406 14.8446 19.6406 15.0006 19.6406C15.1566 19.6406 15.2946 19.7416 15.3426 19.8896L16.3796 23.0796H19.7346C19.8906 23.0796 20.0286 23.1806 20.0776 23.3286C20.1256 23.4766 20.0726 23.6396 19.9466 23.7306L17.2316 25.7036L18.2686 28.8896C18.3166 29.0376 18.2636 29.2006 18.1376 29.2916C18.0746 29.3376 18.0006 29.3606 17.9266 29.3606ZM15.0006 26.5196C15.0746 26.5196 15.1486 26.5426 15.2116 26.5886L17.2416 28.0596L16.4666 25.6776C16.4186 25.5296 16.4716 25.3666 16.5976 25.2756L18.6276 23.8006H16.1176C15.9616 23.8006 15.8236 23.6996 15.7756 23.5516L15.0006 21.1656L14.2256 23.5516C14.1776 23.6996 14.0386 23.8006 13.8836 23.8006H11.3746L13.4046 25.2756C13.5306 25.3676 13.5836 25.5296 13.5356 25.6776L12.7606 28.0596L14.7896 26.5886C14.8526 26.5426 14.9266 26.5196 15.0006 26.5196Z" fill="#00539A"></path></svg>